<?xml version="1.0" standalone="no"?>
<!DOCTYPE svg PUBLIC "-//W3C//DTD SVG 20010904//EN"
 "http://www.w3.org/TR/2001/REC-SVG-20010904/DTD/svg10.dtd">
<svg version="1.0" xmlns="http://www.w3.org/2000/svg"
 width="3048.000000pt" height="3048.000000pt" viewBox="0 0 3048.000000 3048.000000"
 preserveAspectRatio="xMidYMid meet">
<metadata>
Created by potrace 1.14, written by Peter Selinger 2001-2017
</metadata>
<g transform="translate(0.000000,3048.000000) scale(0.100000,-0.100000)"
fill="#000000" stroke="none">
<path d="M14859 30058 c-75 -80 -83 -83 -211 -64 -54 8 -61 6 -106 -23 -88
-56 -153 -146 -205 -281 -20 -52 -41 -115 -47 -140 -17 -67 -41 -128 -120
-305 -61 -136 -187 -484 -204 -565 -3 -14 -17 -67 -31 -119 -14 -51 -27 -104
-29 -117 -3 -13 -7 -32 -10 -42 -3 -9 -7 -28 -10 -42 -2 -14 -10 -47 -16 -75
-15 -62 -14 -61 -35 -170 -9 -49 -18 -97 -20 -105 -2 -8 -4 -22 -4 -30 -1 -8
-15 10 -33 40 -242 427 -516 822 -739 1062 -24 26 -84 91 -134 145 -269 292
-418 394 -615 419 -49 6 -115 -7 -183 -34 -15 -7 -42 -14 -60 -17 -42 -7 -87
-25 -87 -35 0 -11 -57 -30 -87 -30 -16 0 -31 -12 -51 -41 -15 -22 -48 -65 -74
-94 -26 -30 -54 -67 -62 -82 -17 -34 -44 -125 -51 -173 -9 -69 -19 -158 -30
-268 -4 -35 -8 -73 -11 -85 -2 -12 -7 -38 -10 -57 -3 -19 -7 -37 -9 -40 -5 -8
-45 -241 -50 -290 -2 -25 -4 -45 -5 -45 -1 0 -3 -20 -5 -45 -3 -25 -7 -67 -10
-94 -14 -131 -19 -298 -19 -591 0 -301 3 -414 21 -680 4 -60 7 -127 7 -147 1
-21 3 -38 6 -38 3 0 5 -15 6 -33 1 -48 14 -198 19 -227 4 -25 8 -62 20 -175 4
-33 8 -71 10 -84 3 -13 7 -45 10 -70 10 -73 15 -108 20 -148 8 -54 34 -214 40
-243 3 -14 7 -38 10 -55 5 -37 46 -265 70 -390 3 -16 8 -36 10 -43 2 -7 7 -34
11 -60 3 -26 8 -50 10 -53 1 -3 17 -73 34 -155 17 -82 33 -158 35 -169 3 -11
7 -29 9 -40 2 -11 14 -58 25 -105 12 -47 23 -95 26 -108 2 -13 6 -31 9 -40 3
-9 8 -30 11 -47 3 -16 16 -73 30 -125 14 -52 27 -102 29 -110 2 -8 12 -44 21
-80 9 -36 19 -72 21 -80 2 -8 10 -40 18 -70 9 -30 16 -59 16 -64 0 -4 -31 35
-69 87 -89 123 -348 462 -439 577 -25 30 -59 73 -76 94 -89 114 -368 444 -456
540 -19 22 -44 49 -55 61 -282 315 -709 746 -919 928 -37 33 -149 132 -160
142 -6 6 -38 33 -71 60 -33 28 -62 52 -65 55 -18 19 -227 183 -335 265 -122
92 -495 345 -508 345 -4 0 -40 21 -82 46 -103 63 -590 295 -697 332 -125 44
-228 63 -332 61 -108 -2 -254 -24 -305 -45 -20 -9 -49 -17 -66 -19 -46 -6
-141 -62 -173 -103 -22 -29 -72 -131 -78 -162 -2 -12 -16 -47 -30 -75 -33 -68
-45 -320 -20 -427 8 -36 17 -78 20 -93 3 -14 9 -41 15 -58 16 -54 32 -166 46
-321 3 -42 25 -181 39 -251 31 -155 73 -334 101 -425 8 -25 33 -106 55 -180
91 -298 266 -757 390 -1025 174 -376 283 -593 478 -945 166 -302 409 -705 594
-984 32 -49 57 -90 55 -92 -2 -2 -17 6 -34 19 -75 54 -352 237 -524 346 -75
47 -144 91 -155 98 -10 7 -41 26 -69 43 -27 17 -70 44 -95 60 -25 17 -52 33
-60 37 -8 4 -37 21 -65 38 -278 176 -976 549 -1325 707 -30 14 -77 35 -105 48
-280 127 -771 320 -955 375 -311 93 -522 145 -695 170 -22 3 -65 10 -95 15
-30 5 -72 12 -94 16 -21 3 -47 7 -58 9 -11 3 -46 7 -77 11 -31 3 -60 9 -64 11
-22 13 -305 12 -368 -2 -151 -32 -248 -88 -299 -170 -19 -31 -49 -75 -65 -98
-17 -23 -39 -62 -49 -87 -10 -25 -28 -56 -41 -70 -22 -24 -23 -31 -21 -155 3
-139 12 -177 65 -283 16 -31 45 -79 65 -107 70 -98 108 -158 158 -253 144
-273 330 -557 521 -796 87 -109 90 -105 -43 -66 -78 23 -286 77 -330 86 -14 3
-63 14 -110 24 -47 10 -105 22 -130 25 -24 4 -47 8 -50 10 -3 2 -26 6 -50 10
-25 3 -70 10 -100 15 -77 13 -126 19 -195 25 -33 3 -80 8 -105 10 -25 3 -83 7
-130 10 -47 3 -114 8 -150 11 -130 13 -337 7 -427 -10 -59 -12 -137 -42 -158
-62 -13 -12 -26 -39 -30 -64 -13 -75 -34 -102 -115 -141 -40 -20 -77 -44 -82
-53 -7 -12 -3 -39 12 -87 28 -94 24 -104 -64 -174 -27 -21 -29 -27 -27 -84 3
-115 58 -225 191 -386 37 -44 80 -100 97 -125 36 -53 106 -161 113 -175 7 -15
44 -69 50 -75 3 -3 14 -18 24 -35 11 -16 23 -34 28 -40 4 -5 43 -55 86 -110
268 -342 587 -671 1084 -1115 15 -14 34 -30 41 -35 6 -6 57 -49 112 -95 142
-120 286 -237 390 -317 6 -5 30 -24 55 -43 25 -19 51 -40 58 -47 7 -7 17 -13
21 -13 4 0 16 -8 27 -18 42 -40 419 -314 614 -447 63 -43 117 -81 120 -84 3
-4 17 -12 33 -20 15 -8 27 -18 27 -23 0 -4 4 -8 10 -8 5 0 76 -44 157 -98 81
-54 170 -111 196 -127 26 -17 58 -38 70 -48 l22 -17 -27 9 c-14 6 -45 12 -67
15 -22 2 -44 6 -48 9 -5 3 -29 8 -53 12 -25 4 -88 15 -140 25 -52 11 -111 22
-130 24 -19 3 -89 14 -155 26 -66 11 -136 23 -155 26 -114 17 -160 24 -200 29
-25 3 -74 10 -110 15 -36 5 -87 12 -115 15 -27 3 -70 8 -95 12 -25 3 -61 7
-80 8 -19 2 -57 5 -85 8 -111 13 -212 22 -355 31 -47 4 -130 9 -185 13 -55 4
-284 7 -510 7 -361 1 -492 -3 -625 -19 -19 -2 -62 -7 -95 -11 -150 -16 -217
-24 -236 -30 -10 -3 -30 -6 -45 -8 -16 -2 -40 -7 -54 -10 -14 -3 -36 -8 -50
-10 -14 -3 -68 -14 -120 -26 -52 -11 -107 -23 -122 -25 -208 -37 -462 -137
-539 -212 -35 -33 -36 -37 -34 -96 3 -85 -8 -110 -75 -168 -32 -28 -60 -59
-63 -69 -3 -12 11 -45 34 -84 21 -36 39 -74 39 -86 0 -11 -16 -45 -36 -74 -29
-44 -35 -60 -30 -89 17 -107 84 -184 291 -337 77 -57 169 -131 205 -164 99
-93 207 -183 305 -256 33 -25 62 -47 65 -50 3 -3 66 -47 140 -97 208 -139 401
-255 705 -423 78 -44 451 -230 540 -270 39 -18 93 -42 120 -55 102 -46 142
-64 238 -104 126 -54 150 -64 162 -67 6 -1 31 -12 58 -24 149 -67 1065 -398
1149 -415 14 -3 131 -39 303 -93 11 -3 22 -7 25 -7 3 -1 12 -4 20 -7 8 -3 51
-16 95 -28 44 -12 91 -26 105 -31 14 -5 34 -11 45 -14 46 -10 209 -56 214 -60
2 -3 -9 -5 -25 -6 -16 -1 -40 -2 -54 -4 -14 -1 -54 -5 -90 -9 -64 -6 -121 -13
-189 -22 -18 -2 -57 -7 -85 -9 -60 -7 -111 -13 -111 -15 0 -1 -18 -3 -40 -5
-21 -3 -55 -7 -75 -10 -19 -3 -53 -8 -75 -10 -22 -3 -114 -16 -205 -30 -91
-14 -194 -30 -230 -36 -36 -5 -72 -12 -80 -14 -8 -3 -33 -7 -55 -10 -22 -3
-51 -7 -65 -10 -14 -3 -38 -8 -55 -10 -16 -3 -77 -15 -135 -26 -58 -12 -114
-22 -125 -24 -17 -2 -334 -68 -385 -80 -16 -4 -102 -24 -135 -31 -25 -6 -55
-13 -80 -18 -11 -2 -58 -14 -105 -26 -47 -12 -92 -23 -100 -25 -8 -2 -51 -13
-95 -25 -44 -12 -87 -23 -95 -25 -41 -9 -337 -98 -366 -110 -19 -8 -34 -12
-34 -10 0 9 -554 -186 -700 -248 -14 -5 -29 -11 -35 -13 -5 -1 -79 -31 -162
-68 -177 -76 -407 -189 -543 -268 -116 -67 -482 -307 -588 -385 -115 -84 -225
-203 -273 -295 -77 -149 -89 -218 -60 -341 6 -26 11 -66 10 -90 -1 -24 8 -62
20 -89 15 -33 20 -58 16 -85 -6 -36 -3 -41 49 -92 31 -30 56 -59 56 -65 0 -24
79 -95 155 -139 53 -31 121 -58 200 -81 197 -57 238 -71 400 -141 184 -79 555
-192 805 -245 254 -55 512 -103 620 -115 14 -2 42 -6 62 -9 59 -9 98 -14 161
-21 32 -4 67 -8 77 -10 10 -2 47 -6 82 -10 35 -3 74 -8 88 -10 14 -2 50 -6 80
-9 51 -5 85 -8 240 -21 137 -11 292 -20 521 -30 57 -3 239 -7 403 -10 165 -3
300 -6 302 -8 1 -1 -52 -31 -119 -65 -118 -61 -251 -131 -390 -206 -618 -335
-1369 -848 -1803 -1231 -128 -113 -373 -362 -463 -470 -45 -55 -93 -111 -105
-125 -55 -61 -196 -240 -233 -295 -118 -176 -170 -321 -168 -464 2 -81 5 -97
39 -168 21 -43 39 -86 41 -96 9 -43 20 -63 56 -110 22 -27 40 -57 40 -68 1
-10 2 -25 3 -31 0 -7 16 -22 34 -33 18 -11 54 -35 80 -53 105 -72 122 -81 178
-98 84 -24 88 -25 304 -29 107 -2 208 -6 223 -9 15 -3 58 -8 95 -11 37 -4 78
-8 92 -11 136 -22 605 -21 880 1 65 5 175 16 200 20 14 2 57 7 95 10 122 12
228 25 260 31 11 2 40 6 65 9 43 6 65 9 120 20 21 5 57 10 120 19 31 5 125 20
130 21 38 9 70 16 95 20 17 2 64 12 105 20 41 9 86 18 100 21 538 109 1193
295 1865 529 99 34 191 66 205 70 24 7 23 6 -5 -16 -54 -42 -442 -426 -607
-600 -205 -217 -352 -377 -463 -504 -39 -44 -74 -85 -80 -91 -5 -6 -29 -33
-52 -60 -23 -27 -53 -62 -68 -79 -35 -40 -363 -449 -401 -500 -16 -22 -35 -46
-41 -53 -7 -7 -13 -17 -13 -20 0 -4 -10 -19 -23 -32 -12 -14 -38 -48 -56 -75
-19 -28 -38 -52 -41 -55 -14 -13 -273 -397 -347 -515 -89 -143 -204 -347 -273
-485 -86 -172 -96 -195 -171 -381 -34 -85 -65 -158 -69 -164 -6 -8 -65 -116
-101 -185 -19 -35 -51 -117 -55 -139 -3 -13 -9 -31 -13 -40 -13 -24 -7 -183 7
-209 7 -12 35 -33 62 -47 67 -34 83 -61 75 -122 -16 -126 -7 -141 95 -158 51
-8 99 -30 118 -54 7 -9 24 -42 39 -73 14 -32 28 -59 32 -59 3 -1 20 -4 36 -7
89 -16 367 -5 440 19 17 5 107 29 200 54 359 95 526 146 647 198 18 8 101 42
183 77 217 91 652 309 884 442 46 26 86 48 88 48 4 0 392 232 458 275 122 79
291 189 301 196 9 7 -49 -115 -92 -191 -16 -29 -184 -381 -184 -386 0 -1 -13
-31 -29 -66 -44 -95 -196 -457 -214 -508 -9 -25 -37 -99 -62 -165 -128 -337
-269 -832 -300 -1057 -3 -24 -10 -68 -15 -98 -6 -30 -12 -77 -15 -105 -4 -27
-8 -61 -10 -75 -3 -14 -7 -52 -11 -85 -3 -33 -8 -71 -10 -85 -17 -110 -23
-330 -12 -435 14 -130 47 -218 86 -233 15 -5 49 -18 77 -28 61 -22 97 -60 120
-129 32 -93 58 -111 135 -92 107 26 129 21 172 -41 17 -26 38 -53 46 -61 18
-19 124 -25 197 -12 68 12 205 76 280 131 48 34 245 154 255 155 15 1 320 163
341 181 8 8 19 14 23 14 5 0 28 14 53 30 24 17 46 30 48 30 10 0 360 243 420
292 5 4 39 31 75 59 129 100 306 247 413 342 32 28 68 59 80 70 245 212 725
686 929 918 13 14 39 43 58 65 91 101 324 371 439 509 125 151 346 431 373
473 22 33 22 23 4 -65 -8 -38 -17 -80 -20 -93 -12 -64 -36 -188 -40 -215 -9
-50 -56 -319 -60 -341 -2 -12 -7 -45 -11 -75 -3 -30 -8 -61 -10 -69 -2 -8 -7
-40 -10 -70 -3 -30 -10 -80 -15 -110 -5 -30 -12 -82 -15 -115 -3 -33 -8 -76
-11 -95 -2 -19 -6 -57 -9 -85 -2 -27 -7 -72 -9 -100 -10 -100 -16 -172 -21
-275 -3 -58 -8 -139 -10 -180 -6 -101 -6 -672 -1 -785 5 -88 12 -180 21 -260
3 -22 7 -62 10 -90 3 -27 9 -75 15 -105 5 -30 12 -71 14 -90 9 -63 17 -104 28
-145 5 -22 12 -47 13 -55 12 -59 49 -209 83 -340 58 -221 98 -333 150 -412 95
-148 118 -165 220 -167 87 -1 101 -7 170 -76 92 -92 99 -94 184 -50 79 41 117
41 178 0 29 -19 56 -35 61 -35 5 0 9 -5 9 -10 0 -12 37 -9 58 3 6 5 12 6 12 3
0 -9 113 36 153 61 44 28 153 134 247 243 36 41 99 106 140 145 92 86 238 233
305 306 252 273 618 799 859 1231 353 635 718 1471 952 2183 54 165 52 160 59
154 4 -5 61 -270 71 -334 3 -16 7 -37 10 -45 3 -8 10 -37 15 -65 6 -27 12 -59
14 -70 4 -18 122 -486 129 -510 2 -5 6 -23 10 -40 12 -48 146 -509 153 -525 3
-8 7 -19 8 -25 9 -36 134 -400 179 -517 205 -541 450 -1047 651 -1347 98 -146
113 -168 205 -286 46 -61 110 -144 141 -185 63 -83 170 -192 239 -241 43 -31
153 -85 194 -96 46 -12 188 -11 224 1 20 7 57 14 82 15 24 2 61 11 82 22 20
10 56 19 79 19 43 0 45 2 195 148 61 60 115 179 148 327 15 66 47 181 72 255
94 280 160 518 188 685 40 232 42 248 60 390 14 115 19 159 31 270 3 28 7 70
10 95 3 25 7 77 10 115 14 192 19 273 19 308 1 44 9 47 27 9 12 -23 46 -79
162 -266 7 -11 65 -99 129 -195 362 -544 628 -866 957 -1161 47 -41 96 -86
110 -100 14 -14 55 -50 91 -80 35 -30 76 -65 90 -78 95 -85 332 -212 396 -212
14 0 44 15 67 33 77 60 94 64 200 39 66 -15 68 -15 90 6 12 11 28 40 35 64 7
24 25 55 40 70 23 25 33 28 90 28 59 0 66 2 94 32 33 35 52 70 75 132 22 62
23 67 27 266 5 169 11 277 21 338 13 81 20 243 20 482 0 299 -10 486 -40 740
-2 19 -7 60 -10 90 -8 79 -15 131 -20 160 -2 14 -7 45 -10 70 -6 47 -15 114
-20 140 -2 8 -8 51 -15 95 -7 44 -13 87 -15 95 -3 17 -32 171 -39 210 -2 14
-11 59 -20 100 -8 41 -17 86 -20 100 -3 14 -14 68 -26 120 -12 52 -23 103 -25
113 -2 10 -6 26 -9 35 -3 9 -7 28 -10 42 -5 24 -29 117 -80 310 -35 135 -189
663 -211 728 -2 7 -4 13 -4 15 0 1 -7 20 -17 42 -9 22 -12 36 -8 32 4 -4 94
-92 199 -195 232 -227 347 -334 520 -487 50 -43 92 -81 95 -84 12 -14 215
-185 310 -261 58 -47 107 -88 110 -91 3 -3 61 -48 130 -100 69 -51 127 -96
130 -99 14 -16 333 -237 459 -318 80 -52 158 -102 173 -113 15 -10 29 -19 32
-19 2 0 59 -32 127 -71 172 -99 423 -225 569 -284 77 -31 271 -106 285 -109 6
-2 17 -6 25 -9 120 -50 384 -116 480 -119 93 -4 302 41 366 78 22 13 49 24 59
24 29 0 115 60 145 102 15 21 35 68 45 105 9 38 23 93 30 123 27 109 9 344
-35 445 -32 75 -75 210 -84 265 -29 170 -138 522 -221 715 -7 17 -37 86 -65
155 -29 69 -103 230 -166 358 -63 128 -114 235 -114 237 0 2 45 -19 100 -46
56 -27 103 -49 105 -49 2 0 46 -20 97 -44 125 -58 360 -156 543 -226 172 -66
548 -187 610 -197 11 -2 38 -8 60 -14 22 -6 47 -13 55 -14 8 -2 49 -11 90 -20
41 -9 91 -18 110 -21 19 -3 46 -7 60 -9 26 -5 54 -9 131 -19 25 -4 57 -9 70
-11 13 -3 42 -7 64 -10 58 -7 115 -15 160 -21 22 -3 108 -7 190 -9 145 -2 221
7 300 36 76 29 240 112 276 141 22 17 47 33 55 34 8 1 34 20 58 41 68 61 92
118 101 238 3 44 8 97 11 118 8 52 -14 198 -42 282 -12 39 -42 104 -65 145
-88 157 -138 258 -169 337 -46 120 -187 398 -277 548 -111 182 -418 628 -453
655 -3 3 -17 21 -30 40 -14 19 -32 44 -41 55 -10 11 -43 52 -74 90 -62 78
-108 132 -205 245 -88 102 -108 125 -157 178 -23 26 -40 48 -39 50 2 1 38 -7
79 -18 42 -12 87 -23 99 -26 26 -6 37 -9 58 -16 8 -3 60 -16 115 -29 55 -12
105 -24 110 -25 29 -7 305 -63 335 -68 287 -48 471 -68 735 -81 61 -3 155 -14
209 -24 136 -25 291 -21 367 8 52 20 88 46 87 64 0 4 3 25 7 48 8 47 31 65 94
74 57 8 91 22 93 37 0 7 2 45 2 83 1 77 15 105 74 145 26 18 32 29 32 58 0 49
-37 167 -73 232 -60 108 -274 410 -372 524 -5 6 -35 41 -65 76 -67 81 -176
195 -299 314 -132 127 -130 125 -223 206 -46 41 -85 76 -88 79 -24 28 -348
290 -495 401 -60 45 -112 85 -115 88 -3 2 18 1 45 -3 28 -4 64 -9 80 -10 86
-8 153 -16 175 -20 14 -2 59 -7 100 -10 41 -4 89 -8 105 -10 35 -5 114 -11
275 -22 152 -10 897 -10 1030 0 113 9 137 11 215 21 158 20 193 26 295 46 52
11 106 21 120 24 14 2 95 21 180 41 85 20 162 38 170 40 132 28 340 123 415
188 l49 44 2 71 c3 87 18 117 90 185 31 29 60 59 65 68 6 12 -3 40 -31 95 -45
87 -45 94 5 169 46 68 49 90 26 157 -35 103 -108 192 -241 298 -82 66 -101 83
-254 235 -78 77 -172 167 -211 200 -38 33 -76 66 -84 73 -28 27 -268 210 -331
253 -36 24 -74 52 -84 62 -11 9 -24 17 -28 17 -11 0 -54 40 -45 41 8 2 11 2
62 16 22 6 85 21 140 33 55 13 105 25 110 29 6 3 16 6 24 8 52 7 154 83 183
135 17 33 18 42 4 95 -17 62 -13 84 19 108 14 11 42 34 62 51 l36 31 -37 74
c-40 83 -45 128 -20 179 10 18 17 46 16 61 -2 59 -126 210 -261 319 -24 19
-48 40 -55 45 -6 6 -36 28 -66 50 -30 22 -59 43 -65 47 -148 115 -453 310
-625 400 -58 30 -114 60 -125 66 -18 10 -132 64 -285 135 -151 70 -382 165
-578 238 -193 72 -552 196 -592 204 -8 2 -15 4 -15 5 0 1 -7 3 -15 5 -8 2 -33
10 -55 18 l-40 14 50 12 c28 6 64 14 80 17 17 3 37 7 45 10 18 7 109 31 142
38 36 8 174 47 358 101 306 90 768 256 1005 361 22 10 42 18 45 19 86 23 765
383 800 424 3 3 25 20 50 36 25 17 50 34 55 38 6 4 60 44 120 89 280 207 375
292 446 401 61 95 65 116 35 192 -33 83 -33 108 3 181 51 104 50 108 -24 159
-76 53 -83 71 -65 165 9 48 8 57 -14 94 -56 94 -152 150 -363 212 -83 24 -202
65 -265 90 -213 87 -497 175 -673 210 -11 2 -42 8 -70 14 -109 22 -211 42
-240 46 -16 2 -41 6 -55 9 -13 2 -42 7 -65 10 -22 3 -51 8 -65 10 -14 2 -45 7
-70 10 -25 4 -56 8 -70 10 -58 9 -156 20 -265 31 -16 1 -55 5 -85 8 -30 3 -82
8 -115 11 -33 3 -91 7 -130 10 -210 12 -337 18 -394 18 -41 1 -59 4 -50 9 486
291 887 564 1264 861 55 44 105 85 110 91 6 6 23 21 39 34 122 94 433 399 547
537 41 50 107 128 146 175 175 211 286 398 298 505 5 42 3 51 -28 88 -19 23
-39 52 -45 64 -14 25 -17 83 -8 128 3 17 8 40 10 51 7 35 -20 61 -88 84 -36
12 -70 27 -76 35 -7 8 -14 40 -16 72 -6 81 -9 88 -64 123 -83 54 -193 77 -335
71 -132 -6 -250 -4 -340 5 -167 17 -665 10 -870 -11 -22 -2 -65 -7 -95 -10
-62 -6 -133 -15 -170 -21 -29 -5 -65 -10 -133 -19 -27 -4 -56 -8 -65 -10 -10
-1 -39 -6 -67 -10 -27 -4 -59 -9 -70 -11 -11 -1 -34 -5 -52 -8 -18 -2 -40 -7
-50 -10 -10 -3 -36 -7 -58 -11 -22 -3 -47 -7 -55 -10 -8 -2 -31 -7 -50 -9 -38
-5 -165 -32 -220 -46 -19 -5 -46 -11 -60 -13 -35 -7 -350 -83 -440 -107 -41
-12 -82 -22 -90 -24 -8 -2 -58 -16 -110 -31 -52 -15 -108 -30 -125 -35 -16 -4
-58 -17 -92 -28 -35 -11 -63 -18 -63 -16 0 2 -24 -6 -52 -17 -29 -12 -63 -23
-75 -25 -52 -10 -748 -248 -858 -293 -11 -5 -65 -26 -120 -46 -152 -58 -395
-154 -442 -175 -24 -11 -45 -20 -47 -20 -6 0 -319 -132 -386 -163 -25 -11 -49
-22 -55 -25 -10 -4 40 43 160 152 261 237 906 888 1104 1115 64 73 140 159
159 180 13 14 47 53 75 85 29 33 57 64 62 70 34 36 320 384 416 506 210 266
337 440 523 720 314 470 556 912 699 1275 30 77 85 235 122 350 36 116 70 222
75 238 5 15 7 27 5 27 -3 0 0 12 6 28 28 73 47 210 46 326 -1 67 -6 127 -10
133 -4 7 -39 31 -76 53 -70 40 -93 71 -104 135 -20 113 -33 129 -108 126 -29
-1 -55 -3 -58 -6 -4 -2 -25 4 -46 14 -33 15 -45 29 -68 79 -33 71 -51 81 -172
89 -89 6 -189 -15 -292 -62 -29 -14 -58 -25 -64 -25 -6 0 -23 -6 -37 -14 -45
-24 -132 -55 -216 -77 -95 -24 -259 -78 -371 -120 -88 -34 -93 -36 -180 -75
-33 -15 -62 -28 -65 -28 -26 -6 -401 -194 -500 -250 -25 -14 -55 -30 -67 -35
-12 -6 -39 -21 -60 -34 -21 -13 -49 -27 -61 -32 -20 -6 -23 -4 -18 12 13 45
21 134 32 393 21 495 3 625 -115 824 -51 87 -121 157 -200 199 -28 16 -64 40
-79 54 -15 14 -56 39 -92 55 -36 17 -78 42 -95 58 -27 25 -40 28 -125 35 -272
22 -289 18 -575 -138 -44 -24 -140 -67 -212 -96 -114 -46 -398 -181 -443 -211
-8 -5 -51 -30 -95 -56 -120 -69 -369 -232 -430 -281 -6 -4 -55 -42 -110 -83
-98 -72 -295 -228 -305 -240 -14 -16 -101 -82 -105 -79 -2 2 2 33 10 69 7 36
16 88 20 115 3 28 8 61 10 75 2 14 7 43 10 65 2 22 7 51 9 65 3 14 7 48 11 75
3 28 7 64 10 80 8 53 14 101 20 161 3 32 8 73 10 89 14 104 33 347 51 655 6
104 6 700 0 790 -11 179 -18 251 -41 443 -8 74 -38 234 -62 342 -14 61 -26
119 -29 130 -25 132 -76 317 -111 405 -57 141 -150 267 -255 344 -31 23 -178
73 -178 61 0 -2 -26 5 -57 16 -32 11 -80 20 -108 20 -27 1 -66 8 -85 17 -42
20 -55 18 -123 -14 -29 -13 -62 -24 -74 -24 -13 0 -52 -14 -89 -31 -79 -38
-176 -131 -285 -274 -42 -55 -127 -153 -190 -216 -133 -135 -147 -150 -260
-289 -260 -320 -504 -698 -782 -1210 -68 -125 -327 -652 -327 -665 0 -2 -15
-36 -34 -77 -73 -155 -316 -755 -316 -778 0 -6 -5 -18 -10 -28 -14 -24 -148
-398 -205 -572 -50 -153 -64 -182 -66 -137 -1 15 -2 30 -3 35 -1 4 -6 36 -10
72 -4 36 -10 74 -12 85 -2 11 -6 40 -9 65 -4 25 -8 56 -11 70 -2 14 -9 57 -14
95 -6 39 -15 90 -20 115 -5 25 -12 63 -15 85 -6 43 -22 135 -30 175 -3 14 -12
61 -20 104 -8 43 -17 86 -19 95 -3 9 -8 30 -11 46 -3 17 -10 53 -15 80 -18 92
-29 143 -51 232 -11 48 -23 96 -25 106 -2 9 -6 27 -9 40 -3 12 -10 40 -15 62
-27 123 -73 294 -136 510 -19 66 -37 127 -39 135 -2 8 -34 107 -70 220 -225
688 -511 1319 -793 1750 -51 77 -283 390 -371 500 -150 187 -309 324 -426 368
-45 16 -47 16 -123 -11 -42 -15 -92 -27 -110 -27 -18 0 -71 16 -118 35 -46 19
-92 35 -101 35 -10 0 -47 -32 -84 -72z"/>
</g>
</svg>
