<svg xmlns="http://www.w3.org/2000/svg" width="46.01" height="46" viewBox="0 0 46.01 46">
  <path id="instagram-brands" d="M22.935,43.031A11.794,11.794,0,1,0,34.729,54.825,11.775,11.775,0,0,0,22.935,43.031Zm0,19.461A7.668,7.668,0,1,1,30.6,54.825a7.681,7.681,0,0,1-7.668,7.668ZM37.963,42.549A2.751,2.751,0,1,1,35.212,39.8,2.744,2.744,0,0,1,37.963,42.549Zm7.811,2.792c-.174-3.685-1.016-6.949-3.716-9.638S36.1,32.171,32.42,31.987c-3.8-.216-15.181-.216-18.979,0C9.766,32.161,6.5,33,3.8,35.692S.271,41.646.087,45.33c-.216,3.8-.216,15.181,0,18.979C.261,67.994,1.1,71.259,3.8,73.948s5.953,3.531,9.638,3.716c3.8.216,15.181.216,18.979,0,3.685-.174,6.949-1.016,9.638-3.716s3.531-5.953,3.716-9.638C45.989,60.512,45.989,49.139,45.774,45.341ZM40.867,68.384a7.763,7.763,0,0,1-4.373,4.373c-3.028,1.2-10.213.924-13.559.924s-10.542.267-13.559-.924A7.763,7.763,0,0,1,5,68.384C3.8,65.356,4.08,58.171,4.08,54.825S3.813,44.283,5,41.266a7.763,7.763,0,0,1,4.373-4.373c3.028-1.2,10.213-.924,13.559-.924s10.542-.267,13.559.924a7.763,7.763,0,0,1,4.373,4.373c1.2,3.028.924,10.213.924,13.559S42.068,65.367,40.867,68.384Z" transform="translate(0.075 -31.825)" fill="#403636"/>
</svg>
