<svg id="pause" xmlns="http://www.w3.org/2000/svg" width="18" height="24.835" viewBox="0 0 18 24.835">
  <path id="패스_1" data-name="패스 1" d="M150.608,0H156a.608.608,0,0,1,.608.608v23.62a.608.608,0,0,1-.608.608h-5.392a.608.608,0,0,1-.608-.608V.608A.608.608,0,0,1,150.608,0Zm0,0" transform="translate(-138.608)" fill="#f2ebdc"/>
  <path id="패스_2" data-name="패스 2" d="M.608,0H6a.608.608,0,0,1,.608.608v23.62A.608.608,0,0,1,6,24.835H.608A.608.608,0,0,1,0,24.228V.608A.608.608,0,0,1,.608,0Zm0,0" fill="#f2ebdc"/>
</svg>
