<svg id="SM_Entertainment_Logo" xmlns="http://www.w3.org/2000/svg" xmlns:xlink="http://www.w3.org/1999/xlink" width="60" height="56.433" viewBox="0 0 60 56.433">
  <defs>
    <clipPath id="clip-path">
      <rect id="사각형_14" data-name="사각형 14" width="60" height="56.433" fill="#f2ebdc"/>
    </clipPath>
  </defs>
  <g id="그룹_8" data-name="그룹 8" clip-path="url(#clip-path)">
    <path id="패스_3" data-name="패스 3" d="M32.951,12.105c.378-.425.756-.849,1.161-1.247C37.245,7.78,40.35,4.7,43.482,1.652A4.845,4.845,0,0,1,50.341,1.6a15.485,15.485,0,0,1,1.431,1.91,12.9,12.9,0,0,1,1.377-.345,5.3,5.3,0,0,1,6.238,4.882v16.5a4.287,4.287,0,0,1-3.483,4.4,4.237,4.237,0,0,1-5.077-3.9c-.054-2.653-.027-5.28-.027-7.96V5.737a5.151,5.151,0,0,0-.513.451c-2.97,2.918-5.86,5.784-8.776,8.649a5.013,5.013,0,0,1-7.291,0c-.405-.4-.81-.822-1.3-1.327-.378.4-.7.8-1.08,1.141a5.3,5.3,0,0,1-2.7,1.539,4.633,4.633,0,0,1-4.185-1.22c-1.485-1.353-2.889-2.786-4.32-4.165-1.593-1.565-3.159-3.131-4.752-4.67a6.064,6.064,0,0,0-3.213-1.671A.5.5,0,0,0,12,4.835a5.943,5.943,0,0,0,1.35,6.58q5.144,5.094,10.369,10.215L27.9,25.742a7.106,7.106,0,0,1-5.239,12.2,1.151,1.151,0,0,0-.945.4,7.268,7.268,0,0,1-10.369.531C8.406,36.09,5.571,33.2,2.681,30.385L1.034,28.767a3.764,3.764,0,0,1,0-5.386,3.928,3.928,0,0,1,5.482-.027c2.4,2.335,4.752,4.67,7.156,7.031,1.593,1.565,3.159,3.131,4.752,4.67A6.237,6.237,0,0,0,21.1,36.647a.505.505,0,0,0,.7-.318A6.02,6.02,0,0,0,20.53,29.3c-2.97-2.972-5.968-5.917-8.965-8.888-1.674-1.671-3.429-3.29-5.077-4.988A6.972,6.972,0,0,1,9.648,3.562c.459-.133,1-.133,1.485-.239A1.26,1.26,0,0,0,11.754,3a7.317,7.317,0,0,1,11.1-.769q4.86,4.7,9.667,9.472c.108.106.216.212.432.4M22.8,36.912h.432A6.088,6.088,0,0,0,28.793,29.7a6.684,6.684,0,0,0-2.079-3.529q-7.048-6.885-14.041-13.823a6.969,6.969,0,0,1-2.187-5.917,16.341,16.341,0,0,1,.378-1.937,4.426,4.426,0,0,0-2.268.61,6.027,6.027,0,0,0-1.323,9.711c4.644,4.617,9.316,9.207,13.987,13.823a6.76,6.76,0,0,1,2.106,5.625,22.328,22.328,0,0,1-.567,2.653M51.826,15.1h0v9.764a3.213,3.213,0,0,0,4.023,3,3.178,3.178,0,0,0,2.457-3.237V12c0-1.274.027-2.521-.027-3.768a4.226,4.226,0,0,0-5.941-3.714.748.748,0,0,0-.513.822c.027,3.237,0,6.5,0,9.764m-31,22.711a2.2,2.2,0,0,0-.378-.186,8.251,8.251,0,0,1-3.321-2.2c-3.753-3.714-7.534-7.455-11.314-11.143a2.806,2.806,0,0,0-4.05-.133,2.689,2.689,0,0,0,.054,3.98c3.348,3.316,6.67,6.606,10.045,9.9a6.167,6.167,0,0,0,8.29.318,5.322,5.322,0,0,1,.675-.531M12.807,3.429A8.278,8.278,0,0,1,17.236,6c2.565,2.6,5.158,5.121,7.777,7.668a9.185,9.185,0,0,0,1.62,1.22,3.125,3.125,0,0,0,2.943.08A8.783,8.783,0,0,0,32.06,12.9a2.577,2.577,0,0,0-.189-.239c-3.321-3.316-6.643-6.633-10.018-9.9a6.192,6.192,0,0,0-8.587.212,3.592,3.592,0,0,0-.459.451m20.765,9.445a9.171,9.171,0,0,1,1.161,1.061,4.1,4.1,0,0,0,6.157.027c3.132-3.184,6.373-6.288,9.532-9.445a.676.676,0,0,0,.135-.557A3.777,3.777,0,0,0,45.67,1.572,4.425,4.425,0,0,0,44.157,2.58c-2.646,2.574-5.266,5.147-7.885,7.747-.864.8-1.755,1.618-2.7,2.547" transform="translate(0.073 -0.033)" fill="#f2ebdc"/>
  </g>
  <g id="그룹_9" data-name="그룹 9" clip-path="url(#clip-path)">
    <path id="패스_4" data-name="패스 4" d="M191.663,126.874a4.538,4.538,0,1,1,4.617-4.484,4.513,4.513,0,0,1-4.617,4.484m.054-7.986a3.463,3.463,0,0,0-3.51,3.4,3.513,3.513,0,0,0,3.483,3.5,3.554,3.554,0,0,0,3.537-3.476,3.485,3.485,0,0,0-3.51-3.423" transform="translate(-136.578 -86.546)" fill="#f2ebdc"/>
  </g>
  <g id="그룹_10" data-name="그룹 10" clip-path="url(#clip-path)">
    <path id="패스_5" data-name="패스 5" d="M11.952,172.263a2.538,2.538,0,0,1-.783-.106,1.884,1.884,0,0,1-.621-.239c-.162-.106-.3-.186-.405-.265a1.022,1.022,0,0,1-.243-.239l.513-.531a2.121,2.121,0,0,0,1.539.637,1.387,1.387,0,0,0,.756-.159.508.508,0,0,0,.243-.424.2.2,0,0,0-.027-.133c-.027-.027-.027-.08-.054-.106l-.081-.08a.373.373,0,0,0-.108-.08c-.054-.027-.081-.053-.108-.053s-.054-.027-.135-.053-.108-.027-.135-.053a1.188,1.188,0,0,0-.135-.027.367.367,0,0,0-.135-.027c-.081-.027-.216-.053-.378-.106-.162-.027-.324-.08-.432-.106a2.142,2.142,0,0,1-.378-.133,1.09,1.09,0,0,1-.783-1.035.973.973,0,0,1,.27-.69,1.527,1.527,0,0,1,.648-.424,2.763,2.763,0,0,1,.837-.133,3.149,3.149,0,0,1,1,.159,2.366,2.366,0,0,1,.81.451l-.378.584a2.3,2.3,0,0,0-1.4-.478,1.834,1.834,0,0,0-.7.133.4.4,0,0,0-.27.4.456.456,0,0,0,.216.371,2.142,2.142,0,0,0,.783.265,3.883,3.883,0,0,1,1.161.371,1.119,1.119,0,0,1,.675,1.061,1.216,1.216,0,0,1-.162.61,1.1,1.1,0,0,1-.432.425,2.589,2.589,0,0,1-.567.239,2.181,2.181,0,0,0-.594-.027" transform="translate(-7.227 -123.206)" fill="#f2ebdc"/>
  </g>
  <g id="그룹_11" data-name="그룹 11" clip-path="url(#clip-path)">
    <path id="패스_6" data-name="패스 6" d="M31.226,167.8h.756v4.457H31.2v-3.1l-1.458,1.963-1.458-1.99v3.131H27.5V167.8h.729l1.512,2.069Z" transform="translate(-20.074 -123.28)" fill="#f2ebdc"/>
  </g>
  <g id="그룹_12" data-name="그룹 12" clip-path="url(#clip-path)">
    <path id="패스_7" data-name="패스 7" d="M10.9,200.357V195.9h3.429v.716H11.683v1.035h1.944v.716H11.683v1.274h2.673v.716Z" transform="translate(-7.957 -143.924)" fill="#f2ebdc"/>
  </g>
  <g id="그룹_13" data-name="그룹 13" clip-path="url(#clip-path)">
    <path id="패스_8" data-name="패스 8" d="M27.2,200.357V195.9h.729l2.43,3.131.027-3.131h.756v4.457h-.7l-2.457-3.131v3.131Z" transform="translate(-19.855 -143.924)" fill="#f2ebdc"/>
  </g>
  <g id="그룹_14" data-name="그룹 14" clip-path="url(#clip-path)">
    <path id="패스_9" data-name="패스 9" d="M46.431,200.357v-3.741H45V195.9h3.645v.716H47.214v3.741Z" transform="translate(-32.849 -143.924)" fill="#f2ebdc"/>
  </g>
  <g id="그룹_15" data-name="그룹 15" clip-path="url(#clip-path)">
    <path id="패스_10" data-name="패스 10" d="M61.7,200.357V195.9h3.4v.716H62.483v1.035h1.944v.716H62.483v1.274h2.673v.716Z" transform="translate(-45.039 -143.924)" fill="#f2ebdc"/>
  </g>
  <g id="그룹_16" data-name="그룹 16" clip-path="url(#clip-path)">
    <path id="패스_11" data-name="패스 11" d="M78,200.357V195.9h2.322a1.523,1.523,0,0,1,.621.133.832.832,0,0,1,.405.318,2.1,2.1,0,0,1,.216.424,1.366,1.366,0,0,1,.081.478,1.6,1.6,0,0,1-.216.8,1.06,1.06,0,0,1-.675.478l1.134,1.831H80.97l-1.053-1.778H78.783v1.778Zm.783-2.494h1.458a.576.576,0,0,0,.432-.159.618.618,0,0,0,.162-.451.812.812,0,0,0-.135-.451.555.555,0,0,0-.405-.159H78.81v1.22Z" transform="translate(-56.938 -143.924)" fill="#f2ebdc"/>
  </g>
  <g id="그룹_17" data-name="그룹 17" clip-path="url(#clip-path)">
    <path id="패스_12" data-name="패스 12" d="M94.731,200.357v-3.741H93.3V195.9h3.645v.716h-1.4v3.741Z" transform="translate(-68.106 -143.924)" fill="#f2ebdc"/>
  </g>
  <g id="그룹_18" data-name="그룹 18" clip-path="url(#clip-path)">
    <path id="패스_13" data-name="패스 13" d="M106.4,200.284l2.106-4.484h.7l2.106,4.484h-.837l-.486-1.035h-2.3l-.486,1.035Zm1.62-1.751h1.647l-.81-1.751Z" transform="translate(-77.669 -143.851)" fill="#f2ebdc"/>
  </g>
  <g id="그룹_19" data-name="그룹 19" clip-path="url(#clip-path)">
    <rect id="사각형_25" data-name="사각형 25" width="0.783" height="4.457" transform="translate(34.347 51.976)" fill="#f2ebdc"/>
  </g>
  <g id="그룹_20" data-name="그룹 20" clip-path="url(#clip-path)">
    <path id="패스_14" data-name="패스 14" d="M134.7,200.357V195.9h.729l2.43,3.131V195.9h.783v4.457h-.7l-2.457-3.131v3.131Z" transform="translate(-98.327 -143.924)" fill="#f2ebdc"/>
  </g>
  <g id="그룹_21" data-name="그룹 21" clip-path="url(#clip-path)">
    <path id="패스_15" data-name="패스 15" d="M157.426,195.9h.729v4.457h-.783v-3.1l-1.458,1.963-1.431-1.99v3.131H153.7V195.9h.729l1.485,2.069Z" transform="translate(-112.197 -143.924)" fill="#f2ebdc"/>
  </g>
  <g id="그룹_22" data-name="그룹 22" clip-path="url(#clip-path)">
    <path id="패스_16" data-name="패스 16" d="M174.6,200.357V195.9h3.429v.716h-2.646v1.035h1.944v.716h-1.944v1.274h2.673v.716Z" transform="translate(-127.453 -143.924)" fill="#f2ebdc"/>
  </g>
  <g id="그룹_23" data-name="그룹 23" clip-path="url(#clip-path)">
    <path id="패스_17" data-name="패스 17" d="M190.9,200.357V195.9h.729l2.43,3.131.027-3.131h.783v4.457h-.729l-2.457-3.131v3.131Z" transform="translate(-139.352 -143.924)" fill="#f2ebdc"/>
  </g>
  <g id="그룹_24" data-name="그룹 24" clip-path="url(#clip-path)">
    <path id="패스_18" data-name="패스 18" d="M210.131,200.357v-3.741H208.7V195.9h3.645v.716h-1.4v3.741Z" transform="translate(-152.345 -143.924)" fill="#f2ebdc"/>
  </g>
</svg>
