<svg xmlns="http://www.w3.org/2000/svg" width="46.01" height="37.369" viewBox="0 0 46.01 37.369">
  <path id="twitter-brands" d="M41.281,57.4c.029.409.029.817.029,1.226,0,12.466-9.488,26.83-26.83,26.83A26.648,26.648,0,0,1,0,81.218a19.507,19.507,0,0,0,2.277.117,18.885,18.885,0,0,0,11.707-4.029,9.446,9.446,0,0,1-8.817-6.54,11.892,11.892,0,0,0,1.781.146,9.973,9.973,0,0,0,2.482-.321,9.431,9.431,0,0,1-7.561-9.255V61.22a9.5,9.5,0,0,0,4.262,1.2A9.444,9.444,0,0,1,3.211,49.8a26.8,26.8,0,0,0,19.444,9.868,10.645,10.645,0,0,1-.234-2.16,9.439,9.439,0,0,1,16.32-6.452,18.566,18.566,0,0,0,5.985-2.277,9.4,9.4,0,0,1-4.146,5.2,18.9,18.9,0,0,0,5.43-1.46A20.27,20.27,0,0,1,41.281,57.4Z" transform="translate(0 -48.082)" fill="#403636"/>
</svg>
