<svg xmlns="http://www.w3.org/2000/svg" width="46.01" height="32.351" viewBox="0 0 46.01 32.351">
  <path id="youtube-brands" d="M59.982,69.062a5.781,5.781,0,0,0-4.068-4.094C52.326,64,37.938,64,37.938,64s-14.388,0-17.976.968a5.781,5.781,0,0,0-4.068,4.094c-.961,3.611-.961,11.146-.961,11.146s0,7.535.961,11.146a5.7,5.7,0,0,0,4.068,4.029c3.588.968,17.976.968,17.976.968s14.388,0,17.976-.968a5.7,5.7,0,0,0,4.068-4.029c.961-3.611.961-11.146.961-11.146S60.943,72.673,59.982,69.062ZM33.233,87.049V73.367l12.025,6.841Z" transform="translate(-14.933 -64)" fill="#403636"/>
</svg>
