<?xml version="1.0" encoding="utf-8"?>
<!-- Generator: Adobe Illustrator 23.0.0, SVG Export Plug-In . SVG Version: 6.00 Build 0)  -->
<svg version="1.1" id="Capa_1" xmlns="http://www.w3.org/2000/svg" xmlns:xlink="http://www.w3.org/1999/xlink" x="0px" y="0px"
	 viewBox="0 0 464 464" style="enable-background:new 0 0 464 464;" xml:space="preserve">
<style type="text/css">
	.st0{fill:#FFFFFF;}
</style>
<g>
	<g>
		<path class="st0" d="M456,217.1H353.7v-19.8c0-2.9-1.6-5.5-4.1-7L240,128.8V97.4h21.7v11.9c0,4.4,3.6,8,8,8H335c4.4,0,8-3.6,8-8
			c0-0.9-0.2-1.8-0.5-2.7L336,88l6.6-18.2c1.5-4.2-0.6-8.7-4.8-10.2c-0.9-0.3-1.8-0.5-2.7-0.5h-29.8V47.4c0-4.4-3.6-8-8-8H240v-9.8
			c0-4.4-3.6-8-8-8s-8,3.6-8,8v99.1l-109.6,61.5c-2.5,1.4-4.1,4.1-4.1,7V217H8c-4.4,0-8,3.6-8,8v209.3c0,4.4,3.6,8,8,8h448
			c4.4,0,8-3.6,8-8V225.1C464,220.7,460.4,217.1,456,217.1z M305.4,89.4l-0.3-0.3V75.4h18.2L320,85.6c-0.7,1.8-0.7,3.7,0,5.5
			l3.8,10.2h-46.1v-3.9h19.7C301.8,97.4,305.4,93.9,305.4,89.4z M240,55.4h49.4v11.9v14.1H240V55.4z M110.3,426.3H16V233.1h94.3
			V426.3z M224,426.3h-42V335h42V426.3z M282,426.3h-42V335h42V426.3z M338,426.3h-40V327c0-4.4-3.6-8-8-8H174c-4.4,0-8,3.6-8,8
			v99.4h-40v-224l106-59.7L337.7,202l0.3,23V426.3z M448,426.3h-94.3V233.1H448V426.3z"/>
	</g>
</g>
<g>
	<g>
		<path class="st0" d="M232,167.1c-18.5,0-33.5,15.1-33.5,33.6c0,18.5,15.1,33.5,33.6,33.4s33.5-15.1,33.4-33.6
			C265.5,182.1,250.5,167.1,232,167.1z M232,218.2c-9.7,0-17.5-7.9-17.4-17.6c0-9.6,7.8-17.4,17.4-17.4c9.7,0,17.5,7.9,17.5,17.6
			h0.1C249.6,210.4,241.7,218.2,232,218.2z"/>
	</g>
</g>
<g>
	<g>
		<rect x="35.3" y="250.7" class="st0" width="16" height="32"/>
	</g>
</g>
<g>
	<g>
		<rect x="74.7" y="250.7" class="st0" width="16" height="32"/>
	</g>
</g>
<g>
	<g>
		<rect x="150.3" y="250.7" class="st0" width="32" height="16"/>
	</g>
</g>
<g>
	<g>
		<rect x="216" y="250.7" class="st0" width="32" height="16"/>
	</g>
</g>
<g>
	<g>
		<rect x="281.7" y="250.7" class="st0" width="32" height="16"/>
	</g>
</g>
<g>
	<g>
		<rect x="150.3" y="288" class="st0" width="32" height="16"/>
	</g>
</g>
<g>
	<g>
		<rect x="216" y="288" class="st0" width="32" height="16"/>
	</g>
</g>
<g>
	<g>
		<rect x="281.7" y="288" class="st0" width="32" height="16"/>
	</g>
</g>
<g>
	<g>
		<rect x="35.3" y="313.7" class="st0" width="16" height="32"/>
	</g>
</g>
<g>
	<g>
		<rect x="74.7" y="313.7" class="st0" width="16" height="32"/>
	</g>
</g>
<g>
	<g>
		<rect x="35.3" y="376.7" class="st0" width="16" height="32"/>
	</g>
</g>
<g>
	<g>
		<rect x="74.7" y="376.7" class="st0" width="16" height="32"/>
	</g>
</g>
<g>
	<g>
		<rect x="373.3" y="250.7" class="st0" width="16" height="32"/>
	</g>
</g>
<g>
	<g>
		<rect x="412.7" y="250.7" class="st0" width="16" height="32"/>
	</g>
</g>
<g>
	<g>
		<rect x="373.3" y="313.7" class="st0" width="16" height="32"/>
	</g>
</g>
<g>
	<g>
		<rect x="412.7" y="313.7" class="st0" width="16" height="32"/>
	</g>
</g>
<g>
	<g>
		<rect x="373.3" y="376.7" class="st0" width="16" height="32"/>
	</g>
</g>
<g>
	<g>
		<rect x="412.7" y="376.7" class="st0" width="16" height="32"/>
	</g>
</g>
</svg>
