<?xml version="1.0" encoding="utf-8"?>
<!-- Generator: Adobe Illustrator 23.0.0, SVG Export Plug-In . SVG Version: 6.00 Build 0)  -->
<svg version="1.1" id="Layer_1" xmlns="http://www.w3.org/2000/svg" xmlns:xlink="http://www.w3.org/1999/xlink" x="0px" y="0px"
	 viewBox="0 0 512 512" style="enable-background:new 0 0 512 512;" xml:space="preserve">
<style type="text/css">
	.st0{fill:#FFFFFF;}
</style>
<g id="Bulletin_board">
	<path class="st0" d="M472,352c13.3,0,24-10.7,24-24V40c0-13.3-10.7-24-24-24H40c-13.3,0-24,10.7-24,24v288c0,13.3,10.7,24,24,24h8
		v96h-8c-13.3,0-24,10.7-24,24s10.7,24,24,24h64c13.3,0,24-10.7,24-24s-10.7-24-24-24h-8v-96h320v96h-8c-13.3,0-24,10.7-24,24
		s10.7,24,24,24h64c13.3,0,24-10.7,24-24s-10.7-24-24-24h-8v-96H472z M32,328V40c0-4.4,3.6-8,8-8h432c4.4,0,8,3.6,8,8v288
		c0,4.4-3.6,8-8,8H40C35.6,336,32,332.4,32,328z M112,472c0,4.4-3.6,8-8,8H40c-4.4,0-8-3.6-8-8s3.6-8,8-8h64
		C108.4,464,112,467.6,112,472z M80,448H64v-96h16V448z M480,472c0,4.4-3.6,8-8,8h-64c-4.4,0-8-3.6-8-8s3.6-8,8-8h64
		C476.4,464,480,467.6,480,472z M448,448h-16v-96h16V448z"/>
	<path class="st0" d="M208,48h96v16h-96V48z"/>
	<path class="st0" d="M176,80h160v16H176V80z"/>
	<path class="st0" d="M168,128H72c-4.4,0-8,3.6-8,8v128c0,4.4,3.6,8,8,8h96c4.4,0,8-3.6,8-8V136C176,131.6,172.4,128,168,128z
		 M160,256H80V144h80V256z"/>
	<path class="st0" d="M304,128h-96c-4.4,0-8,3.6-8,8v128c0,4.4,3.6,8,8,8h96c4.4,0,8-3.6,8-8V136C312,131.6,308.4,128,304,128z
		 M296,256h-80V144h80V256z"/>
	<path class="st0" d="M440,128h-96c-4.4,0-8,3.6-8,8v128c0,4.4,3.6,8,8,8h96c4.4,0,8-3.6,8-8V136C448,131.6,444.4,128,440,128z
		 M432,256h-80V144h80V256z"/>
	<path class="st0" d="M64,288h32v16H64V288z"/>
	<path class="st0" d="M112,288h64v16h-64V288z"/>
	<path class="st0" d="M200,288h16v16h-16V288z"/>
	<path class="st0" d="M232,288h80v16h-80V288z"/>
	<path class="st0" d="M336,288h16v16h-16V288z"/>
	<path class="st0" d="M368,288h16v16h-16V288z"/>
	<path class="st0" d="M400,288h48v16h-48V288z"/>
	<path class="st0" d="M96,160h16v16H96V160z"/>
	<path class="st0" d="M128,160h16v16h-16V160z"/>
	<path class="st0" d="M96,192h48v16H96V192z"/>
	<path class="st0" d="M96,224h48v16H96V224z"/>
	<path class="st0" d="M232,160h48v16h-48V160z"/>
	<path class="st0" d="M232,192h48v16h-48V192z"/>
	<path class="st0" d="M232,224h48v16h-48V224z"/>
	<path class="st0" d="M368,160h16v16h-16V160z"/>
	<path class="st0" d="M400,160h16v16h-16V160z"/>
	<path class="st0" d="M368,192h48v16h-48V192z"/>
	<path class="st0" d="M368,224h16v16h-16V224z"/>
	<path class="st0" d="M400,224h16v16h-16V224z"/>
</g>
</svg>
