<?xml version="1.0" encoding="utf-8"?>
<!-- Generator: Adobe Illustrator 23.0.0, SVG Export Plug-In . SVG Version: 6.00 Build 0)  -->
<svg version="1.1" id="_x33_0" xmlns="http://www.w3.org/2000/svg" xmlns:xlink="http://www.w3.org/1999/xlink" x="0px" y="0px"
	 viewBox="0 0 512 512" style="enable-background:new 0 0 512 512;" xml:space="preserve">
<style type="text/css">
	.st0{fill:#FFFFFF;}
</style>
<g>
	<path class="st0" d="M160,232c17.8,0,33.6-11.3,39.2-28.2l0.4-1.2l-15.2-5.1l-0.4,1.2c-3.4,10.3-13.1,17.3-24,17.3s-20.6-7-24-17.3
		l-0.4-1.2l-15.2,5.1l0.4,1.2C126.4,220.7,142.2,232,160,232L160,232z"/>
	<path class="st0" d="M256,416c17.8,0,33.6-11.3,39.2-28.2l0.4-1.2l-15.2-5.1l-0.4,1.2c-3.4,10.3-13.1,17.3-24,17.3s-20.6-7-24-17.3
		l-0.4-1.2l-15.2,5.1l0.4,1.2C222.4,404.7,238.2,416,256,416L256,416z"/>
	<path class="st0" d="M392.4,189.5l-0.4,1.2c-3.4,10.3-13.1,17.3-24,17.3s-20.6-7-24-17.3l-0.4-1.2l-15.2,5.1l0.4,1.2
		c5.6,16.9,21.4,28.2,39.2,28.2s33.6-11.3,39.2-28.2l0.4-1.2L392.4,189.5z"/>
	<path class="st0" d="M489.9,312.4c-5-7.4-11-13.9-17.9-19.4V137.4c0-53.7-43.7-97.4-97.4-97.4c-15.6,0-30.4,5.7-41.9,16.1
		c-24.4,1.1-45.7,14.5-57.9,34.1c-4-10.9-10.3-20.9-18.8-29.4l-8.2-8.2C246.3,27.7,225.6,8,200.4,8h-41.8C128,8,99.1,23.8,82.6,49.5
		L81,50.2c-24.9,10-41,33.7-41,60.5c0,7,1.1,14,3.3,20.6l12.8,38.5C57.2,186.6,71,200,88,200h0.5c2.4,21.6,14.3,40.3,31.5,51.8v29.8
		l-42.9,9.5c-16.4,3.6-31.4,11.8-43.2,23.7C17.2,331.5,8,353.7,8,377.2V504h496V359C504,342.4,499.1,326.3,489.9,312.4L489.9,312.4z
		 M488,359v41h-32v-32h-16v120h-59.2c-16-28.2-44.8-46.1-77.2-47.8c10.2-7.6,18.6-17.6,24.2-29.1l1.2,1.2
		c7.6,7.6,17.6,11.7,28.3,11.7h37.8l-10.4-31.2c-4.9-14.7-16.3-25.7-30.4-30.4l0.7-2.1c3.3-10,5-20.3,5-30.8
		c0-9.4-1.4-18.5-3.9-27.1c3.8,1,7.8,1.6,11.9,1.6c12.5,0,24.2-4.8,33-13.7l1.9-1.9l25.7,3.2c19.6,2.4,37.1,13.3,48,29.7
		C484.1,332.5,488,345.5,488,359L488,359z M152.3,323.6c-0.1,2-0.3,3.9-0.3,5.9c0,0.4,0,0.7,0,1.1l-26.5,10.6L115,299.1l10.4-2.3
		L152.3,323.6z M172.8,376h3.2c0,6.4,0.8,12.5,2.2,18.5l-6.5,6.5c-4.5,4.5-10.6,7-17,7h-15.6l3.4-10.1
		C146.8,384.8,159,376,172.8,376L172.8,376z M176,350.2v9.8h-2.2l-1.6-4.8c-2.8-8.3-4.2-17-4.2-25.8c0-44.9,36.6-81.5,81.5-81.5h13
		c44.9,0,81.5,36.6,81.5,81.5c0,8.8-1.4,17.4-4.2,25.8l-1.6,4.8H336v-2.6c0-20.6-16.1-38.2-36.7-39.9l-44.3-3.7
		c-8.4-0.7-15-7.9-15-16.3c0-7.1,4.5-13.3,11.2-15.5l7.3-2.4l-5.1-15.2l-7.3,2.4c-13.2,4.4-22.1,16.8-22.1,30.7c0,0.9,0,1.8,0.1,2.6
		l-13.3,3.8C190.3,309.9,176,328.9,176,350.2L176,350.2z M232,152c8.8,0,16,7.2,16,16s-7.2,16-16,16V152z M231.5,200h0.5
		c16.8,0,30.5-13.1,31.8-29.6l0.2-0.5v62.2c-0.5,0-1-0.1-1.5-0.1h-13c-12.2,0-23.8,2.3-34.6,6.4C223.9,227.8,229.9,214.6,231.5,200
		L231.5,200z M368,240c-30.9,0-56-25.1-56-56v-26.1c0-17.3,9.1-32.9,23.8-41.4c3.7,6.3,8.6,11.9,14.6,16.3C360,140,372,144,384,144
		h24c8.8,0,16,7.2,16,16v24C424,214.9,398.9,240,368,240L368,240z M368,256c6.4,0,12.6-0.9,18.5-2.5l4.8,23.9l-1.7,1.7
		c-11.6,11.6-31.7,11.6-43.3,0l-1.5-1.5c-0.1-0.1-0.1-0.2-0.2-0.3l4.8-23.8C355.4,255.1,361.6,256,368,256L368,256z M336,376h3.2
		c13.8,0,26,8.8,30.4,21.9l3.4,10.1h-15.6c-6.3,0-12.5-2.6-17-7l-6.5-6.5C335.2,388.5,336,382.4,336,376L336,376z M192,350.2
		c0-14.2,9.5-26.9,23.2-30.8l14.2-4c5.3,8,14.1,13.6,24.3,14.5l44.3,3.7c12.4,1,22,11.5,22,23.9V376c0,35.3-28.7,64-64,64
		s-64-28.7-64-64V350.2z M298.3,456c25.4,0,48.6,12,63.3,32H150.4c14.7-20,37.8-32,63.3-32H298.3z M336,72h3.3l2.3-2.3
		c8.8-8.8,20.5-13.7,33-13.7c44.9,0,81.4,36.5,81.4,81.4v145.8c-8-3.8-16.5-6.3-25.5-7.4l-23.8-3l-5-25.2
		c22.8-12.1,38.3-36,38.3-63.6v-24c0-17.6-14.4-32-32-32h-24c-8.6,0-17.1-2.8-24-8c-10-7.5-16-19.5-16-32h-16
		c0,4.6,0.6,9.2,1.7,13.5C309,112.6,296,134,296,157.9V184c0,27.5,15.6,51.5,38.3,63.6l-2.7,13.3C317.9,247,300,237.3,280,233.7V128
		C280,97.1,305.1,72,336,72L336,72z M234.1,89.3c4.9-4.9,8.5-10.7,10.9-17c12.3,12.4,19,28.8,19,46.3c0,10.2-2.4,20.3-7,29.4
		l-0.1,0.2c-5.9-7.4-14.8-12.2-24.9-12.2h-6.5l-23-9.2c-6.4-2.6-10.5-8.7-10.5-15.5c0-8.4,6.8-15.2,15.2-15.2
		c6.6,0,12.4,4.2,14.5,10.4l2.7,8.1l15.2-5.1l-2.7-8.1c-1.2-3.6-3-6.8-5.3-9.6L234.1,89.3z M86.9,65l6.6-2.6l1.4-2.3
		C108.2,37.8,132.7,24,158.6,24h41.8c17.4,0,31.6,14.2,31.6,31.6c0,8.4-3.3,16.4-9.3,22.3l-4.2,4.2c-3.5-1.4-7.3-2.2-11.3-2.2
		c-15.4,0-28.1,11.2-30.7,25.8l-20,5.7c-19.7,5.6-40.1,8.5-60.6,8.5c-4.4,0-8-3.6-8-8s3.6-8,8-8h8V88h-8c-13.2,0-24,10.8-24,24
		c0,10.4,6.7,19.2,16,22.5v1.5c-9,0-17.1,3.8-23,9.8l-6.5-19.5c-1.7-5-2.5-10.3-2.5-15.6C56,90.5,68.1,72.6,86.9,65L86.9,65z
		 M72,168c0-8.8,7.2-16,16-16v32C79.2,184,72,176.8,72,168z M104,192v-56.3c19.3-0.7,38.4-3.5,57-8.8l16.9-4.8
		c3.1,8.8,9.7,16,18.7,19.6l19.4,7.8V192c0,30.9-25.1,56-56,56S104,222.9,104,192L104,192z M160,264c7,0,13.7-1,20.1-2.9
		c-11.6,11.8-20.2,26.6-24.7,43.1L136,284.7v-24.9C143.5,262.5,151.6,264,160,264z M45.1,326.2c9.7-9.7,22-16.4,35.4-19.4l18.9-4.2
		l15.1,60.3l39.2-15.7c0.8,4.4,1.9,8.8,3.3,13.2l0.7,2.1c-14.1,4.7-25.5,15.7-30.4,30.4L116.9,424h37.8c10.7,0,20.7-4.2,28.3-11.7
		l1.2-1.2c5.7,11.5,14,21.5,24.2,29.1c-32.4,1.7-61.2,19.6-77.2,47.8H72V376H56v32H24v-30.8C24,357.9,31.5,339.8,45.1,326.2
		L45.1,326.2z M24,424h32v64H24L24,424z M456,488v-72h32v72H456z"/>
</g>
</svg>
