<?xml version="1.0" encoding="utf-8"?>
<!-- Generator: Adobe Illustrator 23.0.0, SVG Export Plug-In . SVG Version: 6.00 Build 0)  -->
<svg version="1.1" id="Layer_1" xmlns="http://www.w3.org/2000/svg" xmlns:xlink="http://www.w3.org/1999/xlink" x="0px" y="0px"
	 viewBox="0 0 512 512" style="enable-background:new 0 0 512 512;" xml:space="preserve">
<style type="text/css">
	.st0{fill:#FFFFFF;}
</style>
<g id="Page-1">
	<g>
		<path id="Shape" class="st0" d="M469.3,0H145.1c-23.6,0-42.6,19.1-42.7,42.7v102.4H42.7C19.1,145.1,0,164.2,0,187.7v221.9
			c0,23.6,19.1,42.6,42.7,42.7c4.7,0,8.5,3.8,8.5,8.5v42.7c0,3.1,1.7,6,4.4,7.5c2.7,1.5,6.1,1.4,8.7-0.3l89.7-57.1
			c1.4-0.9,3-1.3,4.6-1.3h174.2c23.6,0,42.6-19.1,42.7-42.7v-45l55.2,35.1c2.6,1.7,6,1.8,8.7,0.3c2.7-1.5,4.4-4.4,4.4-7.5v-42.7
			c0-4.7,3.8-8.5,8.5-8.5h17.1c23.6,0,42.6-19.1,42.7-42.7v-256C512,19.1,492.9,0,469.3,0z M358.4,409.6c0,14.1-11.5,25.6-25.6,25.6
			H158.6c-4.9,0-9.6,1.4-13.7,4l-76.6,48.7v-27.1c0-14.1-11.5-25.6-25.6-25.6s-25.6-11.5-25.6-25.6V187.7
			c0-14.1,11.5-25.6,25.6-25.6h59.7v51.2H59.7c-4.7,0-8.5,3.8-8.5,8.5s3.8,8.5,8.5,8.5h42.7v59.7H59.7c-4.7,0-8.5,3.8-8.5,8.5
			c0,4.7,3.8,8.5,8.5,8.5h43.5c4.1,19.9,21.5,34.1,41.8,34.1h191.3c1.6,0,3.2,0.5,4.6,1.3l17.5,11.1V409.6z M494.9,298.7
			c0,14.1-11.5,25.6-25.6,25.6h-17.1c-14.1,0-25.6,11.5-25.6,25.6V377l-76.6-48.7c-4.1-2.6-8.9-4-13.7-4H145.1
			c-14.1,0-25.6-11.5-25.6-25.6v-256c0-14.1,11.5-25.6,25.6-25.6h324.3c14.1,0,25.6,11.5,25.6,25.6V298.7z"/>
		<path class="st0" d="M435.2,76.8h-8.5V51.2c0-9.4-7.6-17.1-17.1-17.1h-68.3c-13.4,0-26.1,6.3-34.1,17.1
			c-8.1-10.7-20.7-17.1-34.1-17.1h-68.3c-9.4,0-17.1,7.6-17.1,17.1v25.6h-8.5c-14.1,0-25.6,11.5-25.6,25.6v179.2
			c0,14.1,11.5,25.6,25.6,25.6h256c14.1,0,25.6-11.5,25.6-25.6V102.4C460.8,88.3,449.3,76.8,435.2,76.8z M204.8,256v-25.6h68.3
			c14.1,0,25.6,11.5,25.6,25.6H204.8z M341.3,51.2h68.3v162.1h-68.3c-9.3,0-18.3,3.1-25.6,8.8V76.8
			C315.7,62.7,327.2,51.2,341.3,51.2L341.3,51.2z M409.6,230.4V256h-93.9c0-14.1,11.5-25.6,25.6-25.6H409.6z M273.1,51.2
			c14.1,0,25.6,11.5,25.6,25.6v145.3c-7.3-5.6-16.3-8.7-25.6-8.8h-68.3V51.2H273.1z M443.7,281.6c0,4.7-3.8,8.5-8.5,8.5h-256
			c-4.7,0-8.5-3.8-8.5-8.5V102.4c0-4.7,3.8-8.5,8.5-8.5h8.5V256c0,9.4,7.6,17.1,17.1,17.1h204.8c9.4,0,17.1-7.6,17.1-17.1V93.9h8.5
			c4.7,0,8.5,3.8,8.5,8.5V281.6z"/>
		<path class="st0" d="M230.4,85.3h42.7c4.7,0,8.5-3.8,8.5-8.5c0-4.7-3.8-8.5-8.5-8.5h-42.7c-4.7,0-8.5,3.8-8.5,8.5
			C221.9,81.5,225.7,85.3,230.4,85.3z"/>
		<path class="st0" d="M230.4,119.5h42.7c4.7,0,8.5-3.8,8.5-8.5c0-4.7-3.8-8.5-8.5-8.5h-42.7c-4.7,0-8.5,3.8-8.5,8.5
			C221.9,115.6,225.7,119.5,230.4,119.5z"/>
		<path class="st0" d="M230.4,153.6h42.7c4.7,0,8.5-3.8,8.5-8.5s-3.8-8.5-8.5-8.5h-42.7c-4.7,0-8.5,3.8-8.5,8.5
			S225.7,153.6,230.4,153.6z"/>
		<path class="st0" d="M230.4,187.7h42.7c4.7,0,8.5-3.8,8.5-8.5c0-4.7-3.8-8.5-8.5-8.5h-42.7c-4.7,0-8.5,3.8-8.5,8.5
			C221.9,183.9,225.7,187.7,230.4,187.7z"/>
		<path class="st0" d="M341.3,85.3H384c4.7,0,8.5-3.8,8.5-8.5c0-4.7-3.8-8.5-8.5-8.5h-42.7c-4.7,0-8.5,3.8-8.5,8.5
			C332.8,81.5,336.6,85.3,341.3,85.3z"/>
		<path class="st0" d="M341.3,119.5H384c4.7,0,8.5-3.8,8.5-8.5c0-4.7-3.8-8.5-8.5-8.5h-42.7c-4.7,0-8.5,3.8-8.5,8.5
			C332.8,115.6,336.6,119.5,341.3,119.5z"/>
		<path class="st0" d="M341.3,153.6H384c4.7,0,8.5-3.8,8.5-8.5s-3.8-8.5-8.5-8.5h-42.7c-4.7,0-8.5,3.8-8.5,8.5
			S336.6,153.6,341.3,153.6z"/>
		<path class="st0" d="M341.3,187.7H384c4.7,0,8.5-3.8,8.5-8.5c0-4.7-3.8-8.5-8.5-8.5h-42.7c-4.7,0-8.5,3.8-8.5,8.5
			C332.8,183.9,336.6,187.7,341.3,187.7z"/>
		<path class="st0" d="M315.7,366.9h-256c-4.7,0-8.5,3.8-8.5,8.5s3.8,8.5,8.5,8.5h256c4.7,0,8.5-3.8,8.5-8.5
			S320.4,366.9,315.7,366.9z"/>
	</g>
</g>
</svg>
