<?xml version="1.0" encoding="utf-8"?>
<!-- Generator: Adobe Illustrator 23.0.0, SVG Export Plug-In . SVG Version: 6.00 Build 0)  -->
<svg version="1.1" id="Layer_1" xmlns="http://www.w3.org/2000/svg" xmlns:xlink="http://www.w3.org/1999/xlink" x="0px" y="0px"
	 viewBox="0 0 747.7 747.7" style="enable-background:new 0 0 747.7 747.7;" xml:space="preserve">
<g>
	<path d="M734.2,412.5c0,82.6,0,165.2,0,247.8c0,2.8,0,5.5,0,8.3c-0.8,29.8-15.3,46.2-45,48.7c-34.3,2.9-68.6,4.6-103,6.7
		c-69.2,4.2-138.5,8.4-207.7,12.5c-61.3,3.7-122.5,6.9-183.8,11c-27.1,1.8-48.4-6.7-63.4-30c-4.6-7.1-10.4-13.5-15.6-20.3
		c-25.1-32.4-50-65-75.4-97.2c-18-22.8-27.2-47.5-27-77.5c1-145.3,0.4-290.7,0.5-436.1c0-5.5,0.4-11,1.3-16.4
		C19,48.7,32.3,35.4,53.8,33.4c35.6-3.3,71.3-5.7,107-8.3c56.8-4.2,113.6-8.4,170.4-12.6c54.6-4,109.3-7.8,163.8-12.1
		c28.5-2.3,53.2,5.8,76.3,22.6c48.1,34.9,97,68.7,145.7,102.7c12.1,8.4,17.4,19,17.3,34.1C733.9,244,734.2,328.3,734.2,412.5z
		 M684.5,414.9c0-72.4,0-144.8,0-217.3c0-21-7.4-28.2-27.9-27c-59.1,3.4-118.2,6.9-177.3,10.4c-72.5,4.2-145.1,8.4-217.6,12.7
		c-25.6,1.5-51.1,3-76.6,4.7c-13.5,0.9-19.7,6.9-21.6,20.4c-0.6,3.8-0.6,7.7-0.6,11.5c0,140.4,0,280.9,0,421.3
		c0,32.7,8.8,40.9,41.7,38.9s65.9-4,98.9-5.9c117.3-6.8,234.7-13.4,352-20.2c18.8-1.1,27.4-9.4,28.9-28.2c0.3-3.3,0.2-6.6,0.2-9.9
		C684.5,555.9,684.5,485.4,684.5,414.9z M631.3,120.3c0.4-0.7,0.8-1.5,1.1-2.2c-2.9-2.9-5.4-6.3-8.6-8.7
		c-23.3-17-46.9-33.8-70.2-50.8c-16-11.6-33.8-17.6-53.3-16.3c-46.2,2.9-92.3,6.5-138.4,9.9c-73.6,5.3-147.1,10.6-220.7,16
		c-17.6,1.3-35.1,2.5-52.6,4.6c-3.6,0.4-7.9,3.9-9.7,7.2c-0.8,1.5,2.8,6.7,5.5,8.8c19,15.4,38.4,30.3,57.6,45.6
		c11.4,9.1,24.2,13.8,38.9,13.1c6.6-0.3,13.2-0.3,19.8-0.7c68.7-4.2,137.4-8.4,206.1-12.5c69.5-4.2,139-8.2,208.6-12.3
		C620.6,121.6,625.9,120.9,631.3,120.3z"/>
	<path d="M610.9,251.3c4.1,16.9-0.5,24.3-17,27.7c-17.6,3.6-17.6,3.6-17.6,21.3c0,97.5-0.1,195,0.2,292.4c0,7.8-2.5,11.8-9.3,13.9
		c-11.2,3.6-22.2,8.2-33.7,10.5c-18.4,3.7-34.8-1.2-45.9-17.1c-15.9-22.8-31.3-45.9-46.3-69.2c-34-52.7-67.7-105.6-101.5-158.4
		c-0.9-1.3-1.8-2.6-3.8-5.3c-0.4,3.8-0.8,6.1-0.8,8.3c0,66.1,0.1,132.2-0.2,198.3c0,6.8,2.5,8.9,8.6,10.1
		c12.4,2.3,24.6,5.4,36.8,8.2c-2.3,13.9-9.4,22.2-22.8,24.5c-10.5,1.8-21.3,2-32,2.7c-25.3,1.5-50.6,2.7-75.8,4.4
		c-7.7,0.5-8.4-3.1-7.2-8.9c1.6-7.6,5.6-12.8,13.7-14.8c7.7-1.8,15.3-4.3,23.3-6.6c0-95.1,0-190,0-286c-11.8-1.1-23.7-2.2-35.5-3.3
		c-3.8-16.9,5.9-31.5,22.5-32.8c35.1-2.8,70.3-5.1,105.4-7.1c2.7-0.2,6.6,3.2,8.4,5.9c38.1,57.6,76,115.3,114,173
		c9.6,14.6,19.3,29.2,30.2,45.9c0-67.8,0-133,0-199.2c-10.2-1.2-20.4-2.8-30.8-3.5c-6.7-0.4-7.8-3.5-6.7-9.2
		c2.1-10.9,10.5-19.7,21.9-20.5c33.5-2.3,67-4,100.6-5.9C609.9,250.7,610.4,251.1,610.9,251.3z"/>
</g>
</svg>
