<?xml version="1.0" encoding="utf-8"?>
<!-- Generator: Adobe Illustrator 23.0.0, SVG Export Plug-In . SVG Version: 6.00 Build 0)  -->
<svg version="1.1" id="Layer_5" xmlns="http://www.w3.org/2000/svg" xmlns:xlink="http://www.w3.org/1999/xlink" x="0px" y="0px"
	 viewBox="0 0 512 512" style="enable-background:new 0 0 512 512;" xml:space="preserve">
<style type="text/css">
	.st0{fill:#FFFFFF;}
</style>
<path class="st0" d="M368,280c75,0,136-61,136-136S443,8,368,8c-68,0-124.4,50.3-134.3,115.6c-20.8-11.9-44.2-18.6-68.2-19.5
	c-41.7-1.5-81.1,13.6-111.1,42.5C24.5,175.5,8,214.4,8,256v85.8l24.5,8.2l8.2,90.1H104v64h16v-64h8c39.7,0,72-32.3,72-72v-8h-16v8
	c0,30.9-25.1,56-56,56H55.3l-7.8-85.9L24,330.2V256c0-10.1,1.2-19.9,3.3-29.5l34.3-13.7c7.9-3.2,16.3-4.8,24.9-4.8
	c23.2,0,44.5,11.8,56.8,31.5l20.3,32.5H180l18.4-24.5c3.5-4.7,9.1-7.5,14.9-7.5c10.3,0,18.7,8.4,18.7,18.7v25.1
	c0,5.5-2.4,10.6-6.5,14.2l-42.6,36.5c-3.4,2.9-9.2,1.3-10.7-3l-4.7-14l-15.2,5.1l4.7,14c3.1,9.3,11.7,15.5,21.5,15.5
	c5.4,0,10.6-1.9,14.8-5.5l42.6-36.5c7.7-6.6,12.1-16.2,12.1-26.3v-25.1c0-19.1-15.5-34.7-34.7-34.7c-10.8,0-21.2,5.2-27.7,13.9
	l-13.4,17.8L156.8,231c-15.3-24.4-41.6-39-70.4-39c-10.6,0-21,2-30.8,5.9l-22.4,9c7-18.2,17.9-34.8,32.3-48.8
	c26.8-25.9,62-39.4,99.4-38c23.9,0.8,47,8.2,67.2,21.3c0,0.9-0.1,1.7-0.1,2.6c0,48.5,25.6,91.1,64,115.2c0,0.1,0,0.2,0,0.3V288
	c0,45.5-22.6,87.7-60.5,113.1l-3.5,2.4V504h16v-92.1c40.2-28.5,64-74.6,64-123.9v-20.2C329.1,275.6,348,280,368,280L368,280z
	 M248.4,152h47.9c0.7,18.3,3.5,34.2,7.8,48H262C254.3,185.5,249.6,169.2,248.4,152z M368,25.3c7.7,4.9,26.5,19.2,40.2,46.7h-80.6
	C341.3,44.4,360.1,30.2,368,25.3L368,25.3z M415,88c4.7,13.4,7.9,29.4,8.6,48H312.3c0.7-18.6,3.9-34.6,8.5-48H415z M487.6,136h-47.9
	c-0.7-18.3-3.5-34.2-7.8-48H474C481.7,102.5,486.4,118.8,487.6,136L487.6,136z M487.6,152c-1.1,17.2-5.9,33.5-13.5,48h-42.2
	c4.3-13.8,7.1-29.7,7.8-48H487.6z M296.3,136h-47.9c1.1-17.2,5.9-33.5,13.5-48h42.2C299.8,101.8,297,117.7,296.3,136z M312.3,152
	h111.4c-0.7,18.6-3.9,34.6-8.5,48H321C316.3,186.6,313.1,170.6,312.3,152L312.3,152z M408.4,216c-13.7,27.6-32.5,41.8-40.4,46.7
	c-7.7-4.9-26.5-19.2-40.2-46.7H408.4z M395.9,260.6c10.1-10,21.4-24.6,30.1-44.6h37.7C447.2,237.9,423.4,254,395.9,260.6z M463.8,72
	H426c-8.7-20-20-34.6-30.1-44.6C423.4,34,447.2,50.1,463.8,72z M340.1,27.4C329.9,37.4,318.6,52,310,72h-37.7
	C288.8,50.1,312.6,34,340.1,27.4z M272.2,216H310c8.7,20,20,34.6,30.1,44.6C312.6,254,288.8,237.9,272.2,216z"/>
<path class="st0" d="M480,384c-10.4,0-19.2,6.7-22.5,16H368c-13.2,0-24-10.8-24-24v-80h-16v80c0,22.1,17.9,40,40,40h89.5
	c3.3,9.3,12.1,16,22.5,16c13.2,0,24-10.8,24-24S493.2,384,480,384z M480,416c-4.4,0-8-3.6-8-8s3.6-8,8-8s8,3.6,8,8
	S484.4,416,480,416z"/>
<path class="st0" d="M360,296v16c0,22.1,17.9,40,40,40h41.5c3.3,9.3,12.1,16,22.5,16c13.2,0,24-10.8,24-24s-10.8-24-24-24
	c-10.4,0-19.2,6.7-22.5,16H400c-13.2,0-24-10.8-24-24v-16H360z M464,336c4.4,0,8,3.6,8,8s-3.6,8-8,8s-8-3.6-8-8S459.6,336,464,336z"
	/>
<path class="st0" d="M208,24h16v16h-16V24z"/>
<path class="st0" d="M240,24h16v16h-16V24z"/>
<path class="st0" d="M80,56c10.4,0,19.2-6.7,22.5-16H192V24h-89.5C99.2,14.7,90.4,8,80,8C66.8,8,56,18.8,56,32S66.8,56,80,56z
	 M80,24c4.4,0,8,3.6,8,8s-3.6,8-8,8s-8-3.6-8-8S75.6,24,80,24z"/>
<path class="st0" d="M160,72h16v16h-16V72z"/>
<path class="st0" d="M192,72h16v16h-16V72z"/>
<path class="st0" d="M32,104c10.4,0,19.2-6.7,22.5-16H144V72H54.5C51.2,62.7,42.4,56,32,56C18.8,56,8,66.8,8,80S18.8,104,32,104z
	 M32,72c4.4,0,8,3.6,8,8s-3.6,8-8,8s-8-3.6-8-8S27.6,72,32,72z"/>
<path class="st0" d="M224.3,369.7l9.9,12.6c26.5-20.9,43.1-52.1,45.5-85.7l-16-1.1C261.7,324.5,247.3,351.6,224.3,369.7L224.3,369.7
	z"/>
<path class="st0" d="M108.6,147.5l6.9,14.5c15-7.1,31.2-10.5,48.4-9.9c11.4,0.4,22.5,2.8,33.2,7l6-14.8c-12.4-5-25.4-7.7-38.6-8.2
	C144.6,135.3,125.9,139.2,108.6,147.5z"/>
<path class="st0" d="M76,170.3l11.8,10.8c4-3.9,8.3-7.4,12.8-10.6l-9.2-13.1c-5.2,3.6-10.1,7.7-14.7,12.1L76,170.3z"/>
<path class="st0" d="M264,264h16v16h-16V264z"/>
<path class="st0" d="M328,168h16v16h-16V168z"/>
<path class="st0" d="M360,168h16v16h-16V168z"/>
<path class="st0" d="M392,168h16v16h-16V168z"/>
<path class="st0" d="M328,104h16v16h-16V104z"/>
<path class="st0" d="M360,104h16v16h-16V104z"/>
<path class="st0" d="M392,104h16v16h-16V104z"/>
</svg>
