<?xml version="1.0" encoding="utf-8"?>
<!-- Generator: Adobe Illustrator 23.0.0, SVG Export Plug-In . SVG Version: 6.00 Build 0)  -->
<svg version="1.1" id="Capa_1" xmlns="http://www.w3.org/2000/svg" xmlns:xlink="http://www.w3.org/1999/xlink" x="0px" y="0px"
	 viewBox="0 0 512 512" style="enable-background:new 0 0 512 512;" xml:space="preserve">
<style type="text/css">
	.st0{fill:#FFFFFF;}
</style>
<g>
	<g>
		<path class="st0" d="M67.8,413.1c1.1,4.6,5.2,7.6,9.7,7.6c0.8,0,1.6-0.1,2.4-0.3l48.3-11.9c4.4-1.1,7.5-5,7.6-9.6
			c1.3-98,1.8-99.3,29.5-165.7l26.8-60.1c2.3-5,0-11-5-13.2c-5-2.3-11,0-13.2,5l-27,60.5c-27.9,66.8-29.7,71-31,165.4l-40.8,10.1
			C69.7,402.3,66.5,407.7,67.8,413.1z"/>
		<path class="st0" d="M435.5,492c-24.8-2.4-49.7-7.6-71.9-15c-5.2-1.7-10.9,1.1-12.7,6.3c-1.7,5.2,1.1,10.9,6.3,12.7
			c23.6,7.9,50,13.4,76.3,15.9c0.3,0,0.7,0,1,0c5.1,0,9.4-3.9,9.9-9C445,497.5,441,492.6,435.5,492z"/>
		<path class="st0" d="M383.8,408.5l48.3,11.9c5.4,1.3,10.8-2,12.1-7.3c1.3-5.4-2-10.8-7.3-12.1L396,390.9
			c-1.3-94.4-3.1-98.6-31-165.4L305.3,92c-7.9-17.7-26.6-21.3-40.2-15.8c-3.3,1.3-6.4,3.3-9.1,5.8c-2.7-2.5-5.8-4.4-9.1-5.8
			c-13.6-5.6-32.3-1.9-40.2,15.8c-2.3,5,0,11,5,13.2c5,2.3,11,0,13.2-5c3.4-7.6,10.9-6.9,14.4-5.4c3.1,1.3,7.9,4.7,4.8,13.1
			l-28.2,75.7c-11.4,2-21,11.2-24.3,24.1c-4.7,18.5-9,36.3-13.1,53.5c-2.1,8.7-4.2,17.4-6.3,26.2c-1.3,5.4,2,10.8,7.4,12.1
			c5.4,1.3,10.8-2,12.1-7.4c2.2-8.8,4.2-17.6,6.3-26.3c4.1-17.1,8.3-34.8,13-53.2c1.3-5.1,5.1-10,10.6-9.4c0.1,0,0.2,0,0.3,0
			c5.1,0.7,8.7,5.4,8,10.5c-0.6,5.2-1.7,15.2-2.8,25c-1,9.7-2.1,19.6-2.8,24.6c-3.4,27.5-2.4,30.8,6.6,48.3c1.7,3.3,3.6,7.1,6,12
			c10.4,21.2,8.6,50.3-5.5,91.6c-15.1,44-90.9,70.7-154.9,76.9c-5.5,0.5-9.5,5.4-9,10.9c0.5,5.2,4.9,9,9.9,9c0.3,0,0.6,0,1,0
			c72.6-7,153.8-37.6,171.9-90.3c2.1-6.3,4-12.3,5.6-18.1c1.6,5.8,3.5,11.8,5.6,18.1c4,11.7,11.4,22.9,21.9,33.1
			c1.9,1.9,4.5,2.8,7,2.8c2.6,0,5.2-1,7.2-3c3.9-4,3.8-10.3-0.2-14.1c-8.2-8-13.9-16.5-16.9-25.2c-14.1-41.2-15.9-70.3-5.5-91.6
			c2.3-4.8,4.2-8.6,5.9-11.9c9-17.5,10-20.8,6.6-48.3c-0.6-5-1.7-15-2.8-24.7c-1.1-9.7-2.1-19.8-2.8-24.9c-0.3-2.5,0.4-4.9,1.9-6.9
			c1.5-2,3.7-3.2,6.1-3.6c0.1,0,0.2,0,0.3,0c5.5-0.6,9.3,4.3,10.6,9.4c4.7,18.3,8.9,36,13,53.1c2.1,8.8,4.2,17.5,6.3,26.4
			c1.3,5.4,6.7,8.7,12.1,7.3c5.4-1.3,8.7-6.7,7.3-12.1c-2.2-8.8-4.2-17.6-6.3-26.3c-4.1-17.2-8.4-34.9-13.1-53.4
			c-3.3-12.9-12.9-22.1-24.3-24.1l-28.2-75.7c-3.1-8.4,1.6-11.9,4.8-13.1c3.5-1.4,11-2.1,14.4,5.4l59.6,133
			c27.7,66.4,28.3,67.6,29.5,165.7C376.2,403.4,379.3,407.4,383.8,408.5z M276.2,187.4c-9.6,5.8-15.4,16.9-13.9,28.8
			c0.6,5,1.7,15,2.8,24.6c1.1,9.7,2.2,19.8,2.8,25c2.8,22.4,2.8,22.4-4.5,36.7c-1.7,3.3-3.8,7.3-6.1,12.3c-0.4,0.8-0.7,1.6-1.1,2.3
			c-0.3-0.8-0.7-1.5-1.1-2.3c-2.4-5-4.5-9.1-6.2-12.4c-7.3-14.3-7.3-14.3-4.5-36.7c0.6-5.2,1.7-15.2,2.8-25c1-9.7,2.1-19.6,2.8-24.6
			c1.5-11.9-4.3-23-13.9-28.8l20.2-54.2L276.2,187.4z"/>
		<path class="st0" d="M256,52.7c5.5,0,10-4.5,10-10V10c0-5.5-4.5-10-10-10s-10,4.5-10,10v32.7C246,48.2,250.5,52.7,256,52.7z"/>
		<path class="st0" d="M157.2,71.8c1.9,3.2,5.2,5,8.7,5c1.7,0,3.4-0.4,5-1.3c4.8-2.8,6.4-8.9,3.7-13.7l-16.3-28.3
			c-2.8-4.8-8.9-6.4-13.7-3.7c-4.8,2.8-6.4,8.9-3.7,13.7L157.2,71.8z"/>
		<path class="st0" d="M66.6,125.1l28.3,16.3c1.6,0.9,3.3,1.3,5,1.3c3.5,0,6.8-1.8,8.7-5c2.8-4.8,1.1-10.9-3.7-13.7l-28.3-16.3
			c-4.8-2.8-10.9-1.1-13.7,3.7C60.2,116.2,61.8,122.4,66.6,125.1z"/>
		<path class="st0" d="M85.7,222.9c0-5.5-4.5-10-10-10H43.1c-5.5,0-10,4.5-10,10s4.5,10,10,10h32.7
			C81.3,232.9,85.7,228.4,85.7,222.9z"/>
		<path class="st0" d="M341.1,75.5c1.6,0.9,3.3,1.3,5,1.3c3.5,0,6.8-1.8,8.7-5l16.3-28.3c2.8-4.8,1.1-10.9-3.7-13.7
			c-4.8-2.8-10.9-1.1-13.7,3.7l-16.3,28.3C334.7,66.6,336.3,72.7,341.1,75.5z"/>
		<path class="st0" d="M412.1,142.8c1.7,0,3.4-0.4,5-1.3l28.3-16.3c4.8-2.8,6.4-8.9,3.7-13.7c-2.8-4.8-8.9-6.4-13.7-3.7l-28.3,16.3
			c-4.8,2.8-6.4,8.9-3.7,13.7C405.3,141,408.7,142.8,412.1,142.8z"/>
		<path class="st0" d="M468.9,212.9h-32.7c-5.5,0-10,4.5-10,10s4.5,10,10,10h32.7c5.5,0,10-4.5,10-10S474.4,212.9,468.9,212.9z"/>
		<path class="st0" d="M195,141.5c1.4,0.7,3,1.1,4.5,1.1c3.7,0,7.2-2,9-5.5l0,0c2.5-4.9,0.5-10.9-4.5-13.4
			c-4.9-2.5-10.9-0.5-13.4,4.5C188.1,133,190.1,139,195,141.5z"/>
		<path class="st0" d="M327.3,461.6L327.3,461.6c-5.1-2.2-11,0.2-13.1,5.3c-2.2,5.1,0.2,11,5.3,13.1c1.3,0.6,2.6,0.8,3.9,0.8
			c3.9,0,7.6-2.3,9.2-6.1C334.7,469.7,332.3,463.8,327.3,461.6z"/>
	</g>
</g>
</svg>
