<?xml version="1.0" encoding="utf-8"?>
<!-- Generator: Adobe Illustrator 23.0.0, SVG Export Plug-In . SVG Version: 6.00 Build 0)  -->
<svg version="1.1" id="Layer_1_1_" xmlns="http://www.w3.org/2000/svg" xmlns:xlink="http://www.w3.org/1999/xlink" x="0px" y="0px"
	 viewBox="0 0 512 512" style="enable-background:new 0 0 512 512;" xml:space="preserve">
<style type="text/css">
	.st0{fill:#FFFFFF;}
</style>
<path class="st0" d="M213.8,128h-19.3c-19.2,0-37.3,7.5-50.9,21.1l-93.3,93.3c-1.5,1.5-2.3,3.5-2.3,5.7s0.8,4.2,2.3,5.7l40,40
	c3.1,3.1,8.2,3.1,11.3,0l74.3-74.3v83.3l-63.6,182.7c-0.9,2.4-0.5,5.2,1,7.3c1.5,2.1,3.9,3.4,6.5,3.4h72c3.4,0,6.4-2.2,7.6-5.4
	l56.9-163.5l64.1,163.8c1.2,3.1,4.2,5.1,7.5,5.1h72c2.6,0,5.1-1.3,6.6-3.5c1.5-2.2,1.8-5,0.8-7.4L336,302.5v-83.2l74.3,74.3
	c3.1,3.1,8.2,3.1,11.3,0l40-40c1.5-1.5,2.3-3.5,2.3-5.7s-0.8-4.2-2.3-5.7l-93.3-93.3c-13.6-13.6-31.7-21.1-50.9-21.1h-19.3
	c13.3-11.7,21.8-28.9,21.8-48c0-35.3-28.7-64-64-64s-64,28.7-64,64C192,99.1,200.5,116.3,213.8,128L213.8,128z M317.5,144
	c15,0,29,5.8,39.6,16.4l87.6,87.6L416,276.7l-82.3-82.3c-2.3-2.3-5.7-3-8.7-1.7c-3,1.2-4.9,4.2-4.9,7.4v104c0,1,0.2,2,0.5,2.9
	L388.3,480h-54.8l-70-178.9c-1.2-3.1-4.2-5.1-7.5-5.1c0,0-0.1,0-0.2,0c-3.3,0.1-6.3,2.2-7.4,5.4L186.3,480h-55.1l60.3-173.4
	c0.3-0.8,0.4-1.7,0.4-2.6V200c0-3.2-1.9-6.2-4.9-7.4c-3-1.2-6.4-0.6-8.7,1.7L96,276.7L67.3,248l87.6-87.6
	c10.6-10.6,24.6-16.4,39.6-16.4L317.5,144z M256,32c26.5,0,48,21.5,48,48s-21.5,48-48,48s-48-21.5-48-48S229.5,32,256,32z"/>
<path class="st0" d="M250.5,261.8c1.5,1.5,3.5,2.2,5.5,2.2s4-0.7,5.5-2.2l34.3-32.6c5.3-5,8.2-11.7,8.2-18.8s-2.9-13.8-8.2-18.8
	c-10.6-10-27.9-10.1-38.5,0c0,0,0,0,0,0l-1.4,1.3l-1.4-1.3c-10.6-10.1-27.9-10.1-38.5,0c-5.3,5-8.2,11.7-8.2,18.8s2.9,13.8,8.2,18.8
	L250.5,261.8z M227.2,203.2c2.3-2.2,5.2-3.2,8.2-3.2s6,1.1,8.2,3.2l6.9,6.5c3.1,2.9,7.9,2.9,11,0l6.9-6.5c4.5-4.3,11.9-4.3,16.4,0
	c2.1,2,3.2,4.5,3.2,7.2s-1.1,5.3-3.2,7.2L256,245l-28.8-27.3c-2.1-2-3.2-4.5-3.2-7.2S225.1,205.2,227.2,203.2L227.2,203.2z"/>
<path class="st0" d="M421.8,93.8c-3.9-4-8-7.9-12.1-11.5l-10.6,12c3.8,3.4,7.6,7,11.3,10.7L421.8,93.8z"/>
<path class="st0" d="M430.5,128.8l12.9-9.4c-3.3-4.5-6.8-8.9-10.3-13.1l-12.2,10.3C424.2,120.5,427.5,124.6,430.5,128.8z"/>
<path class="st0" d="M368.9,53.4c-4.9-2.7-9.9-5.3-14.9-7.6l-6.8,14.5c4.7,2.2,9.3,4.6,13.9,7.1L368.9,53.4z"/>
<path class="st0" d="M447,155.1l14.1-7.5c-2.6-4.9-5.4-9.8-8.4-14.5l-13.6,8.5C442,146,444.6,150.5,447,155.1L447,155.1z"/>
<path class="st0" d="M471.7,244.4l16-0.9c-0.3-5.6-0.8-11.2-1.5-16.6l-15.9,2C471,234,471.4,239.2,471.7,244.4z"/>
<path class="st0" d="M459.5,183.6l15.1-5.4c-1.9-5.2-3.9-10.5-6.2-15.5l-14.6,6.5C455.9,173.8,457.8,178.7,459.5,183.6L459.5,183.6z
	"/>
<path class="st0" d="M464.9,357l-14.4-7c-2.2,4.6-4.7,9.2-7.3,13.7l13.9,8C459.9,366.9,462.5,361.9,464.9,357L464.9,357z"/>
<path class="st0" d="M477.2,326l-15.3-4.8c-1.6,5-3.3,9.9-5.2,14.6l14.9,5.9C473.7,336.6,475.6,331.3,477.2,326L477.2,326z"/>
<path class="st0" d="M448.2,385.9l-13.3-9c-2.9,4.3-6,8.5-9.2,12.6l12.6,9.9C441.8,395,445.1,390.5,448.2,385.9L448.2,385.9z"/>
<path class="st0" d="M404.8,412.5l11,11.6c4-3.8,7.9-7.8,11.7-11.9l-11.8-10.8C412.2,405.2,408.6,408.9,404.8,412.5L404.8,412.5z"/>
<path class="st0" d="M467.8,213.5l15.7-3.1c-1.1-5.5-2.4-10.9-3.9-16.3l-15.4,4.3C465.6,203.3,466.8,208.4,467.8,213.5z"/>
<path class="st0" d="M485,293.5l-15.8-2.6c-0.8,5.1-1.9,10.2-3,15.2l15.6,3.7C483,304.5,484.1,299,485,293.5L485,293.5z"/>
<path class="st0" d="M488,260.2l-16-0.3c-0.1,5.2-0.4,10.4-0.8,15.5l15.9,1.4C487.6,271.4,487.9,265.8,488,260.2z"/>
<path class="st0" d="M396.8,71.7c-4.4-3.4-9-6.6-13.6-9.7l-8.8,13.4c4.3,2.9,8.6,5.9,12.7,9L396.8,71.7z"/>
<path class="st0" d="M40.8,275.2c-0.5-5.1-0.7-10.3-0.8-15.5l-16,0.3c0.1,5.6,0.4,11.2,0.9,16.7L40.8,275.2z"/>
<path class="st0" d="M41.7,228.6l-15.9-2c-0.7,5.5-1.2,11.1-1.5,16.6l16,0.9C40.6,238.9,41.1,233.7,41.7,228.6L41.7,228.6z"/>
<path class="st0" d="M47.8,198.1l-15.4-4.3c-1.5,5.3-2.8,10.8-3.9,16.2l15.7,3.2C45.3,208.2,46.5,203.1,47.8,198.1z"/>
<path class="st0" d="M165,60.1l-6.8-14.5c-5,2.3-10.1,4.9-14.9,7.6l7.8,14C155.6,64.7,160.3,62.3,165,60.1z"/>
<path class="st0" d="M72.9,141.4l-13.6-8.5c-2.9,4.7-5.8,9.6-8.4,14.5l14.1,7.5C67.5,150.3,70.2,145.8,72.9,141.4L72.9,141.4z"/>
<path class="st0" d="M58.3,168.9l-14.6-6.5c-2.3,5.1-4.4,10.4-6.2,15.5l15.1,5.4C54.3,178.5,56.2,173.6,58.3,168.9z"/>
<path class="st0" d="M113.1,94.1l-10.6-12c-4.2,3.7-8.3,7.6-12.1,11.5l11.4,11.2C105.4,101.2,109.2,97.6,113.1,94.1z"/>
<path class="st0" d="M107,412.4c-3.8-3.6-7.5-7.4-10.9-11.1L84.3,412c3.7,4,7.6,8.1,11.7,11.9L107,412.4z"/>
<path class="st0" d="M91.3,116.3L79.1,106c-3.6,4.2-7.1,8.6-10.4,13.1l12.9,9.5C84.7,124.4,87.9,120.3,91.3,116.3z"/>
<path class="st0" d="M55.1,335.6c-1.9-4.8-3.7-9.7-5.2-14.7l-15.3,4.8c1.7,5.3,3.6,10.6,5.6,15.8L55.1,335.6z"/>
<path class="st0" d="M137.8,75.3L129,61.9c-4.6,3-9.2,6.3-13.6,9.6l9.7,12.7C129.2,81.1,133.5,78.1,137.8,75.3z"/>
<path class="st0" d="M27,293.2c0.9,5.5,2,11,3.3,16.4l15.6-3.7c-1.2-5.1-2.2-10.2-3-15.3L27,293.2z"/>
<path class="st0" d="M68.7,363.6c-2.6-4.5-5-9.1-7.3-13.8l-14.4,7c2.4,5,5.1,10,7.8,14.8L68.7,363.6z"/>
<path class="st0" d="M86.1,389.3c-3.2-4-6.3-8.3-9.2-12.6l-13.3,9c3.1,4.6,6.4,9.2,9.9,13.5L86.1,389.3z"/>
<path class="st0" d="M264.3,487.8c5.6-0.2,11.2-0.6,16.7-1.2l-1.8-15.9c-5.1,0.6-10.3,0.9-15.5,1.1L264.3,487.8z"/>
<path class="st0" d="M247.6,487.9l0.6-16c-5.1-0.2-10.4-0.6-15.5-1.1l-1.7,15.9C236.5,487.2,242.1,487.6,247.6,487.9L247.6,487.9z"
	/>
</svg>
